<?xml version="1.0" encoding="utf-8"?>
<!-- Generator: Adobe Illustrator 25.0.1, SVG Export Plug-In . SVG Version: 6.00 Build 0)  -->
<!DOCTYPE svg PUBLIC "-//W3C//DTD SVG 1.1//EN" "http://www.w3.org/Graphics/SVG/1.1/DTD/svg11.dtd" [
	<!ENTITY ns_extend "http://ns.adobe.com/Extensibility/1.0/">
	<!ENTITY ns_ai "http://ns.adobe.com/AdobeIllustrator/10.0/">
	<!ENTITY ns_graphs "http://ns.adobe.com/Graphs/1.0/">
	<!ENTITY ns_vars "http://ns.adobe.com/Variables/1.0/">
	<!ENTITY ns_imrep "http://ns.adobe.com/ImageReplacement/1.0/">
	<!ENTITY ns_sfw "http://ns.adobe.com/SaveForWeb/1.0/">
	<!ENTITY ns_custom "http://ns.adobe.com/GenericCustomNamespace/1.0/">
	<!ENTITY ns_adobe_xpath "http://ns.adobe.com/XPath/1.0/">
]>
<svg version="1.1" id="Layer_1" xmlns:x="&ns_extend;" xmlns:i="&ns_ai;" xmlns:graph="&ns_graphs;"
	 xmlns="http://www.w3.org/2000/svg" xmlns:xlink="http://www.w3.org/1999/xlink" x="0px" y="0px" width="481px" height="89px"
	 viewBox="0 0 481 89" style="enable-background:new 0 0 481 89;" xml:space="preserve">
<style type="text/css">
	.st0{fill:#FEFEFE;}
	.st1{fill:#1B191A;}
	.st2{fill:#1D191A;}
	.st3{fill:#F9F7F8;}
	.st4{fill:#F4F2F3;}
	.st5{fill:#FBFBFB;}
	.st6{fill:#F9F8F8;}
	.st7{fill:#F6F5F5;}
	.st8{fill:#F9F8F9;}
	.st9{fill:#F6F4F5;}
	.st10{fill:#F2F1F2;}
	.st11{fill:#FCFCFC;}
	.st12{fill:#FBF9FA;}
	.st13{fill:#FAF9FA;}
	.st14{fill:#F5F3F4;}
	.st15{fill:#EAE7E8;}
</style>
<metadata>
	<sfw  xmlns="&ns_sfw;">
		<slices></slices>
		<sliceSourceBounds  bottomLeftOrigin="true" height="89" width="481" x="59.016" y="-344.082"></sliceSourceBounds>
	</sfw>
</metadata>
<g id="AY7pXj_1_">
	<g>
		<g>
			<path class="st0" d="M0.085,88.905C0.085,60.462,0.143,32.018,0,3.574C-0.015,0.596,0.603-0.002,3.584,0
				C161.523,0.092,319.462,0.092,477.4,0c2.98-0.002,3.6,0.595,3.584,3.574c-0.145,27.112-0.165,54.226,0.015,81.338
				c0.023,3.421-0.676,4.09-4.099,4.087C317.962,88.891,159.024,88.905,0.085,88.905z"/>
			<path class="st1" d="M339.654,47.926c3.417-3.249,6.225-6.991,9.133-10.69c4.473-5.689,10.533-8.253,17.911-7.379
				c1.655,0.196,3.639,1.369,4.862-0.994c0.431-0.834,0.971-2.056,2.142-1.228c0.721,0.51,1.317,1.585,1.441,2.479
				c0.4,2.876-0.638,5.565-1.457,8.271c-1.822,6.021-0.985,9.726,2.438,10.954c3.137,1.125,6.693-1.749,8.759-7.125
				c1.012-2.634,1.934-5.303,2.963-7.93c0.349-0.89,0.746-2.029,2.038-1.691c1.183,0.31,1.341,1.401,1.187,2.428
				c-0.396,2.625-0.935,5.229-1.297,7.858c-0.489,3.557,0.126,6.799,3.872,8.261c4.327,1.689,8.395,0.089,10.677-3.967
				c1.759-3.126,1.947-6.651,2.375-10.113c0.156-1.264,0.038-2.852,1.774-3.188c1.551-0.3,2.413,0.847,3.22,1.927
				c0.397,0.532,0.738,1.106,1.101,1.662c2.031,3.11,3.661,4.167,5.522-0.33c2.493-6.022,6.54-10.535,13.76-10.365
				c4.186,0.099,8.171,1.412,9.626,5.755c1.516,4.521-2.064,6.964-5.059,9.325c-2.661,2.099-5.965,2.871-9.125,3.914
				c-0.983,0.324-2.742-0.315-2.733,1.392c0.009,1.639,1.678,1.8,2.924,2.176c5.166,1.559,13.038-2.119,16.584-7.677
				c2.128-3.336,2.863-7.07,3.187-10.9c0.324-3.831,2.141-4.409,5.393-2.938c3.929,1.777,8.05,3.149,11.91,5.055
				c7.552,3.728,8.535,13.527,2.273,19.097c-7.259,6.457-16.348,6.875-22.34-0.674c-1.282-1.615-2.303-1.203-3.825-0.586
				c-2.922,1.184-5.89,2.362-8.948,3.082c-6.944,1.634-10.028,0.18-13.547-5.896c-3.222-5.562-5.617-5.576-9.012-0.154
				c-1.139,1.819-2.357,3.646-3.838,5.182c-5.236,5.429-11.606,5.521-16.338-0.256c-2.299-2.807-4.066-2.737-6.526-0.944
				c-4.292,3.129-8.44,5.051-12.142-0.831c-1.171-1.86-2.379-0.253-3.336,0.329c-6.475,3.941-12.588,5.059-18.27-1.475
				c-2.163-2.487-3.91-0.119-5.5,1.109c-4.409,3.406-8.835,5.62-14.693,3.213c-2.735-1.124-4.514-2.604-5.56-5.196
				c-0.622-1.541-1.129-3.132-1.824-4.637c-0.994-2.151-2.343-4.726-4.786-4.514c-2.435,0.212-1.613,3.224-2.084,5.015
				c-0.759,2.884-1.163,5.86-1.876,8.758c-0.262,1.065-0.767,2.488-2.26,2.126c-1.343-0.325-1.493-1.708-1.375-2.89
				c0.131-1.312,0.417-2.616,0.735-3.899c0.857-3.454,0.82-6.966,0.275-10.407c-0.612-3.869-2.617-4.644-5.254-1.95
				c-4.423,4.519-8.542,9.076-6.289,16.512c1.678,5.541,2.038,11.452,1.617,17.309c-0.517,7.191-6.751,13.796-13.75,14.242
				c-3.653,0.232-7.172-1.085-9.07-4.233c-2.628-4.356-1.642-9.027,0.621-13.302c1.688-3.189,3.772-6.168,5.873-9.551
				c-2.554-0.693-4.642-1.115-6.626-1.826c-5.398-1.935-7.836-6.466-6.712-12.211c0.982-5.021-0.077-6.752-4.481-7.324
				c-4.1-0.533-6.398,1.429-6.754,5.891c-0.277,3.48-0.419,6.97-0.659,10.453c-0.09,1.299,0,3.003-1.831,2.98
				c-2.042-0.026-1.445-1.828-1.464-3.044c-0.067-4.322-0.067-8.645-0.106-12.967c-0.012-1.366-0.165-2.933-1.498-3.458
				c-1.621-0.638-2.797,0.686-3.777,1.815c-2.231,2.57-3.253,5.72-4.311,8.894c-1.041,3.125-1.996,6.361-4.773,8.587
				c-2.435,1.952-4.748,3.233-7.225,0.042c-1.567-2.018-3.424-1.768-5.723-0.954c-9.539,3.377-14.327,0.765-16.752-8.904
				c-0.21-0.839-0.18-1.766-1.312-1.555c-1.392,0.259-2.586,1.151-2.741,2.557c-0.253,2.298-0.039,4.646-0.251,6.952
				c-0.092,1.008,0.092,2.572-1.545,2.68c-1.551,0.102-2.049-1.463-2.041-2.382c0.043-5.17-2.662-6.867-7.476-6.892
				c-3.395-0.017-6.998-3.77-9.665-2.061c-2.453,1.573-1.314,6.201-2.18,9.39c-0.313,1.152-0.264,3.145-2.126,2.748
				c-1.619-0.346-1.196-2.204-1.177-3.431c0.201-12.98,1.758-25.862,2.948-38.769c0.093-1.006-0.002-2.649,1.729-2.412
				c1.287,0.177,1.086,1.585,1.062,2.455c-0.166,6.144-0.443,12.285-0.688,18.427c-0.312,7.82,6.715,12.49,13.963,9.299
				c2.001-0.881,2.378-2.543,2.461-4.478c0.32-7.473,0.651-14.947,1.075-22.415c0.093-1.645-0.543-4.243,2.337-3.958
				c2.554,0.252,2.124,2.556,1.927,4.365c-0.735,6.778-1.574,13.545-0.968,20.39c0.262,2.957,1.407,3.63,3.685,1.556
				c5.914-5.384,13.166-7.228,20.792-6.785c2.462,0.143,5.131-3.756,6.861-0.287c1.123,2.253-0.765,5.109-1.309,7.697
				c-0.751,3.574-1.641,7.131-1.481,10.842c0.054,1.254,0.304,2.441,1.439,2.968c1.356,0.63,2.113-0.674,2.885-1.439
				c2.877-2.848,3.469-6.776,4.458-10.41c0.93-3.42,2.963-5.877,5.402-8.163c1.446-1.356,3.425-2.152,5.034-1.033
				c5.764,4.01,12.802,0.218,18.73,3.313c1.429,0.746,3.14-0.757,4.472-1.754c2.452-1.837,5.224-2.889,8.184-3.511
				c7.937-1.667,7.987-1.671,9.787,6.024c0.614,2.624,1.35,3.735,3.617,1.18c1.318-1.485,2.799-2.853,4.351-4.096
				c2.498-2,5.152-2.078,7.828-0.232c1.088,0.751,2.164,1.547,3.338,2.14c4.249,2.145,7.981,5.1,12.011-1.388
				c3.087-4.971,9.02-4.947,14.486-2.926c3.332,1.777,4.452,4.396,3.044,7.977c-2.726,5.261-7.959,6.9-12.954,8.814
				c-0.836,0.32-2.086-0.237-1.99,1.338c0.055,0.911,0.868,0.818,1.472,0.98C333.721,49.934,336.756,49.451,339.654,47.926z"/>
			<path class="st2" d="M60.059,28.096c3.944,1.138,8.244,1.185,11.58,4.171c1.126,1.008,2.731,0.987,4.243,0.303
				c6.226-2.816,13.058-3.363,19.562-5.145c2.881-0.79,2.981,1.701,3.227,3.252c0.597,3.765,0.731,7.6,1.183,11.392
				c0.187,1.566,0.139,3.805,2.309,3.802c2.45-0.003,1.98-2.312,1.873-3.83c-0.301-4.294,1.781-7.754,3.972-11.019
				c5.245-7.815,13.472-7.928,18.618-0.084c1.56,2.378,2.181,1.626,3.597,0.434c3.216-2.709,6.39-1.967,10.455-1.447
				c5.863,0.75,12.865,4.594,18.278-1.811c0.697-0.825,1.543-1.454,2.541-0.707c1.112,0.834,1.037,2.115,0.381,3.154
				c-2.364,3.746-5.764,5.151-10.203,4.647c-8.306-0.943-8.294-0.854-8.909,7.327c-0.187,2.482-0.449,4.965-0.837,7.422
				c-0.196,1.238-0.372,3.058-2.153,2.731c-1.487-0.273-1.793-2.052-1.542-3.296c0.567-2.804,0.635-5.603,0.537-8.424
				c-0.04-1.149-0.144-2.322-0.427-3.431c-0.398-1.564-0.533-3.707-2.381-3.989c-1.533-0.234-2.414,1.551-3.091,2.845
				c-1.379,2.637-2.615,5.348-3.899,8.033c-2.931,6.127-8.026,9.088-14.574,9.835c-2.761,0.315-5.233-0.221-7.191-2.53
				c-0.941-1.109-2.3-2.003-3.958-1.014c-1.369,0.816-1.45,2.127-1.326,3.496c0.405,4.462,1.068,8.916,1.186,13.385
				c0.174,6.58-2.423,9.676-9.552,12.206c-5.226,1.855-9.598,0.557-13.401-3.791c-3.813-4.361-2.158-8.682,0.002-12.955
				c1.189-2.352,3.891-4.644,3.724-6.793c-0.196-2.511-4.691-1.95-6.227-4.078c-4.745-6.571-9.285-3.996-14.638-0.593
				c-6.384,4.06-13.01,3.788-18.687-1.874c-1.121-1.118-1.962-1.177-3.444-0.771c-11.921,3.27-13.37,2.833-21.471-5.988
				c-2.252,2.968-0.677,6.526-1.687,9.558c-0.446,1.341-0.5,3.308-2.655,2.817c-1.56-0.356-1.59-1.741-1.491-3.222
				c0.794-11.956,0.41-23.927,0.118-35.886c-0.078-3.172,0.829-4.852,3.775-5.968c5.173-1.96,10.372-3.597,15.967-3.61
				c6.663-0.015,12.43,1.972,16.66,7.409c2.34,7.842,0.526,13.058-6.157,17.522c-4.19,2.799-9.034,4.103-13.657,5.923
				c-1.93,0.76-5.146,0.577-4.427,4.115c0.503,2.476,4.524,4.388,7.377,3.77c2.299-0.499,3.644-2.234,4.983-3.906
				c3.01-3.76,6.016-7.523,9.979-10.346C51.743,28.614,55.444,26.527,60.059,28.096z"/>
			<path class="st3" d="M60.059,28.096c-10.535,0.642-16.01,8.356-21.872,15.559c-3.841,4.72-9.845,4.437-13.278-0.607
				c-1.946-2.86-2.071-4.966,2.055-6.063c4.143-1.101,8.242-2.518,12.176-4.22c9.147-3.958,11.907-8.868,10.964-18.708
				c3.849,2.544,4.16,8.238,9.098,9.97C60.593,24.516,59.966,26.668,60.059,28.096z"/>
			<path class="st4" d="M343.988,38.003c0.407-3.2-0.444-5.921-3.044-7.977C346.51,31.873,346.52,31.901,343.988,38.003z"/>
			<path class="st4" d="M339.654,47.926c-2.7,3.008-5.835,2.736-9.138,1.209C333.561,48.731,336.608,48.329,339.654,47.926z"/>
			<path class="st5" d="M293.513,53.233c2.718,6.639,2.293,12.726,1.803,18.784c-0.148,1.828-1.34,3.33-2.552,4.72
				c-3.388,3.887-8.14,5.512-10.847,3.344c-3.872-3.101-2.16-6.965-0.592-10.361C284.166,63.566,288.636,58.573,293.513,53.233z"/>
			<path class="st6" d="M282.444,52.531c-3.376-0.196-6.664-0.256-8.148-3.351c-1.542-3.217-0.698-6.535,1.436-9.322
				c2.846-3.718,6.997-5.419,11.328-6.711c1.161-0.346,2.687-0.322,3.114,0.826c1.48,3.979,2.431,8.297,1.151,12.33
				C290.032,50.379,286.474,52.369,282.444,52.531z"/>
			<path class="st7" d="M455.151,52.528c-2.083-0.359-4.462-0.707-5.519-3.204c-0.707-1.671,0.466-2.89,1.559-3.843
				c1.041-0.907,2.313-1.524,2.886,0.673c0.34,1.305,0.417,3.406,2.741,1.98c1.707-1.048,2.534-2.65,1.83-4.633
				c-0.873-2.46-2.874-3.65-5.362-3.728c-2.417-0.076-2.828-1.361-2.32-3.247c0.494-1.834,0.649-4.242,3.554-3.755
				c3.609,0.605,7.142,1.6,10.096,3.846c3.913,2.975,3.865,8.321,0.045,11.503C461.444,50.8,457.878,52.494,455.151,52.528z"/>
			<path class="st3" d="M228.807,34.812c3.165-0.26,4.448,0.927,3.596,4.932c-1.052,4.949-2.393,9.345-7.654,11.192
				c-3.046,1.069-6.002,0.733-8.177-1.845c-2.185-2.59-1.064-5.175,0.342-7.802C219.38,36.681,223.237,34.745,228.807,34.812z"/>
			<path class="st8" d="M364.537,33.549c2.271,0.294,5.213,0.455,5.264,4.093c0.074,5.332-6.493,11.481-11.987,11.209
				c-3.501-0.174-6.167-1.692-6.074-5.762C351.846,38.498,358.462,33.454,364.537,33.549z"/>
			<path class="st9" d="M424.794,42.081c-2.058,0.219-3.167-0.516-2.879-2.768c0.617-4.837,7.318-9.498,12.233-8.57
				c1.765,0.333,3.289,1.09,3.706,2.8c0.367,1.504-0.658,2.767-1.8,3.831C434.36,38.95,427.183,42.012,424.794,42.081z"/>
			<path class="st10" d="M331.079,42.102c-1.716-0.038-3.394,0.001-3.197-2.561c0.221-2.885,4.807-6.916,8.039-6.986
				c2.105-0.046,3.67,0.722,3.9,2.899C340.123,38.301,335.074,42.042,331.079,42.102z"/>
			<path class="st11" d="M18.586,23.574c-0.553-10.035,0.848-11.608,11.108-12.724c2.633-0.286,5.239-0.337,7.909-0.072
				c4.247,0.423,6.739,2.817,7.758,6.585c0.946,3.5-0.569,6.687-3.364,8.728c-5.986,4.372-13.046,6.314-20.163,7.961
				c-2.458,0.569-3.28-0.812-3.254-3.041C18.608,28.534,18.586,26.054,18.586,23.574z"/>
			<path class="st12" d="M99.198,66.217c0.239,4.418-1.994,7.225-5.764,9.038c-3.586,1.724-6.996,0.801-9.695-1.596
				c-2.56-2.274-1.169-5.19,0.004-7.793c2.125-4.717,5.689-8.043,10.178-10.494c1.988-1.085,3.462-1.065,3.885,1.544
				C98.308,60.009,98.737,63.115,99.198,66.217z"/>
			<path class="st8" d="M68.069,38.313c0.146,4.855-2.694,7.622-6.722,9.46c-4.053,1.85-8.012,1.738-11.676-1.027
				c-1.456-1.098-1.944-2.633-1.613-4.401c1.288-6.876,11.333-11.67,17.453-8.368C67.278,34.932,68.336,36.228,68.069,38.313z"/>
			<path class="st13" d="M95.084,40.127c0.229,6.659-6.393,11.196-12.582,8.469c-2.265-0.998-4.377-2.45-4.443-5.421
				c-0.076-3.438,1.502-6.039,4.199-7.964c0.912-0.651,2.11-0.917,3.193-1.314C93.324,31.014,94.804,31.974,95.084,40.127z"/>
			<path class="st14" d="M108.403,41.159c0.862-5.16,2.927-8.401,6.059-10.634c2.305-1.644,5.322-1.357,7.245,0.852
				c2.156,2.477,0.26,4.681-1.605,6.323c-2.483,2.187-5.449,3.635-8.603,4.734C108.869,43.349,108.109,42.486,108.403,41.159z"/>
			<path class="st15" d="M110.452,48.705c5.344-3.04,9.77-5.557,14.544-8.272C123.12,48.068,118.423,50.999,110.452,48.705z"/>
		</g>
	</g>
</g>
</svg>
