<?xml version="1.0" encoding="utf-8"?>
<!-- Generator: Adobe Illustrator 25.0.1, SVG Export Plug-In . SVG Version: 6.00 Build 0)  -->
<!DOCTYPE svg PUBLIC "-//W3C//DTD SVG 1.1//EN" "http://www.w3.org/Graphics/SVG/1.1/DTD/svg11.dtd" [
	<!ENTITY ns_extend "http://ns.adobe.com/Extensibility/1.0/">
	<!ENTITY ns_ai "http://ns.adobe.com/AdobeIllustrator/10.0/">
	<!ENTITY ns_graphs "http://ns.adobe.com/Graphs/1.0/">
	<!ENTITY ns_vars "http://ns.adobe.com/Variables/1.0/">
	<!ENTITY ns_imrep "http://ns.adobe.com/ImageReplacement/1.0/">
	<!ENTITY ns_sfw "http://ns.adobe.com/SaveForWeb/1.0/">
	<!ENTITY ns_custom "http://ns.adobe.com/GenericCustomNamespace/1.0/">
	<!ENTITY ns_adobe_xpath "http://ns.adobe.com/XPath/1.0/">
]>
<svg version="1.1" id="Layer_1" xmlns:x="&ns_extend;" xmlns:i="&ns_ai;" xmlns:graph="&ns_graphs;"
	 xmlns="http://www.w3.org/2000/svg" xmlns:xlink="http://www.w3.org/1999/xlink" x="0px" y="0px" width="512px" height="512px"
	 viewBox="0 0 512 512" style="enable-background:new 0 0 512 512;" xml:space="preserve">
<style type="text/css">
	.st0{fill:#FEFEFE;}
	.st1{fill:#1D1D1B;}
	.st2{fill:#019CDE;}
	.st3{fill:#1164AF;}
	.st4{fill:#0395D3;}
</style>
<metadata>
	<sfw  xmlns="&ns_sfw;">
		<slices></slices>
		<sliceSourceBounds  bottomLeftOrigin="true" height="512" width="512" x="0" y="0"></sliceSourceBounds>
	</sfw>
</metadata>
<g id="Ufx2bc_1_">
	<g>
		<path class="st0" d="M511.909,255.965c0,83.946-0.021,167.892,0.081,251.838c0.004,3.219-0.371,4.2-3.985,4.197
			c-168.059-0.121-336.118-0.116-504.177-0.022c-3.198,0.002-3.791-0.815-3.789-3.862C0.121,340.058,0.129,171.999,0,3.94
			C-0.003,0.2,1.174,0.026,4.265,0.028C172.157,0.107,340.05,0.113,507.942,0c3.484-0.002,4.063,0.772,4.058,4.127
			C511.884,88.073,511.909,172.019,511.909,255.965z"/>
		<path class="st1" d="M384.201,275.126c-11.679,3.249-22.814,7.649-34.516,10.078c-4.396,0.913-8.744,1.945-13.295,1.917
			c-3.189-0.02-5.551,1.169-6.765,4.662c-10.181,29.307-22.105,57.998-31,87.762c-0.72,2.411-1.273,4.779-1.278,7.315
			c-0.047,22.488-0.388,44.973-1.559,67.432c-0.197,3.784,0.928,5.517,4.574,6.805c15.489,5.468,30.894,11.182,46.242,17.036
			c7.932,3.025,10.87,9.064,8.566,16.031c-1.713,5.18-5.74,6.882-10.575,7.774c-13.001,2.397-25.522-0.395-37.914-3.695
			c-9.292-2.475-18.432-5.545-27.569-8.567c-2.495-0.825-4.753-0.825-7.288-0.411c-18.018,2.946-35.485,8.54-53.577,11.092
			c-6.64,0.937-13.285,0.898-19.879-0.447c-3.834-0.782-6.965-2.97-8.143-6.59c-1.24-3.813-0.06-7.177,3.308-10.116
			c11.54-10.072,25.347-14.897,39.912-18.218c4.036-0.92,7.974-2.314,12.034-3.079c4.91-0.925,6.495-3.42,6.458-8.498
			c-0.131-18.307,0.271-36.618,0.477-54.927c0.057-5.058-0.967-9.739-3.224-14.406c-15.629-32.328-27.871-66.039-40.096-99.741
			c-1.341-3.698-2.683-4.425-6.631-3.642c-14.375,2.85-28.467-0.183-42.506-3.093c-0.481-0.1-0.965-0.184-1.757-0.334
			c-0.118,7.479-1.316,14.595-5.923,20.702c-2.551,3.382-5.542,6.307-9.51,7.827c-12.756,4.885-23.301-2.741-22.777-16.506
			c0.106-2.782,0.204-4.349-3.404-4.792c-5.142-0.631-10.463-2.106-11.457-8.462c-1.002-6.404,3.142-13.251,9.263-16.174
			c1.338-0.639,2.61-1.417,4.689-2.557c-1.956-1.656-3.764-2.893-5.209-4.463c-4.841-5.259-3.045-12.331,3.697-14.651
			c5.693-1.959,11.493-1.392,17.271-0.389c3.081,0.535,5,0.568,5.487-3.748c0.698-6.186,7.443-11.932,12.495-11.907
			c5.682,0.028,11.632,5.347,13.311,11.69c1.485,5.61,0.511,10.909-1.909,15.973c-1.079,2.257-0.526,3.129,1.706,3.835
			c8.26,2.613,16.74,2.706,25.218,2.065c3.728-0.282,1.055-2.716,0.487-3.779c-7.363-13.782-14.058-27.888-20.667-42.039
			c-12.156-26.029-23.652-52.372-36.973-77.848c-1.224-2.341-2.398-4.685-4.257-6.697c-2.919-3.16-2.347-4.992,1.919-6.355
			c4.472-1.429,9.171-1.583,13.817-1.882c19.119-1.233,38.266-1.68,57.417-1.99c0.787-0.013,1.573-0.083,3.594-0.195
			c-5.744-3.46-9.616-7.408-13.168-11.691c-1.185-1.429-2.708-2.946-1.164-4.79c1.294-1.545,3.177-1.342,5.081-0.737
			c2.65,0.842,4.657,2.562,6.586,4.381c4.2,3.961,9.389,6.217,14.492,8.635c3.569,1.691,5.18,1.209,5.06-3.399
			c-0.449-17.315-0.491-34.627,0.56-51.945c0.825-13.609,3.967-27.026,3.222-40.759c-0.163-3.005,1.509-4.341,4.59-4.612
			c27.942-2.462,55.87-2.816,83.788,0.272c6.489,0.718,7.98,2.952,6.516,9.226c-5.607,24.026-7.651,48.594-11.019,72.959
			c-0.728,5.267-0.898,10.61-1.348,15.916c-0.207,2.437,0.029,3.89,3.173,2.616c7.865-3.189,15.738-6.278,22.359-11.828
			c3.016-2.528,7.951-2.043,9.504,1.069c1.899,3.802-0.731,5.686-3.671,7.424c-5.191,3.07-10.272,6.326-16.242,10.026
			c8.47,0.438,16.01,0.876,23.555,1.208c11.314,0.498,22.631,0.899,33.945,1.393c3.43,0.15,6.814-0.738,10.282-0.111
			c3.994,0.722,5.786,2.34,4.782,6.801c-4.868,21.649-12.9,42.172-22.092,62.255c-9.323,20.369-19.033,40.561-28.534,60.849
			c-0.982,2.097-1.696,4.32-2.624,6.714c7.697,2.233,14.965,0.669,22.172-1.429c6.396-1.862,12.315-4.972,18.528-7.285
			c3.725-1.387,4.089-3.448,2.674-6.439c-1.709-3.615-1.808-7.402-1.559-11.237c0.474-7.307,4.09-11.638,10.777-13.078
			c7.003-1.508,14.639,1.089,17.148,6.916c2.12,4.923,4.396,6.174,9.799,5.025c9.133-1.943,12.736,1.836,13.787,7.424
			c0.797,4.236-0.951,7.808-3.873,10.798c-1.026,1.05-2.275,1.881-3.587,2.946c3.748,2.453,8.177,3.466,9.952,8.079
			c1.491,3.874,1.232,7.159-1.69,10.073c-4.161,4.15-8.754,7.937-14.522,9.298c-3.784,0.893-4.621,2.804-4.59,6.15
			c0.045,4.865-0.266,9.633-4.276,13.309c-5.164,4.733-11.538,5.982-17.682,4.155c-7.067-2.102-10.559-8.35-11.997-15.391
			C384.493,282.738,384.54,279.212,384.201,275.126z"/>
		<path class="st2" d="M150.987,255.008c10.688,6.856,22.569,8.465,34.904,7.682c4.152-0.264,8.277-0.676,12.454-0.606
			c5.316,0.09,7.165-2.642,5.255-7.668c-4.033-10.616-9.885-20.353-15.262-30.278c-10.809-19.954-18.637-41.235-28.354-61.661
			c-5.289-11.118-10.788-22.144-16.505-33.047c-1.766-3.369-1.908-4.269,2.373-4.544c28.277-1.819,56.586-1.841,84.858-0.795
			c11.576,0.428,23.096,2.933,34.777,2.754c5.822-0.089,11.638-0.565,17.46-0.729c29.118-0.824,58.161,1.09,87.22,2.441
			c3.826,0.178,7.656,0.284,11.485,0.383c3.469,0.09,4.5,1.306,3.429,4.982c-6.854,23.523-15.765,46.204-26.031,68.461
			c-8.361,18.126-17.436,35.913-25.433,54.205c-2.277,5.209-0.816,7.369,5.043,8.2c14.558,2.064,28.509,0.111,41.88-6.005
			c4.538-2.076,9.085-4.133,13.623-6.209c4.814-2.201,6.072-4.83,4.467-9.837c-0.655-2.045-1.732-3.952-2.543-5.951
			c-0.436-1.075-0.851-2.191-1.043-3.328c-0.707-4.171,2.376-9.51,5.677-9.22c4.303,0.379,5.237,4.085,5.827,7.594
			c0.337,2.006-0.436,3.932-1.24,5.784c-0.906,2.086-2.429,4.122,0.455,6.075c2.864,1.94,5.329,1.466,7.642-0.726
			c2.294-2.174,4.439-4.526,7.31-5.972c1.937-0.975,4.385-2.339,5.945-0.375c1.709,2.152,0.046,4.311-1.73,6.056
			c-3.641,3.579-8.332,5.409-12.727,7.717c-2.041,1.072-4.027,2.11-3.016,4.855c0.894,2.427,2.997,2.875,5.342,2.64
			c2.976-0.298,5.953-0.763,8.934-0.798c2.811-0.034,5.346,1.053,6.335,3.942c1.045,3.054-1.344,4.511-3.365,5.974
			c-4.808,3.479-8.247,3.572-13.137,0.102c-3.047-2.162-5.896-2.376-8.447,0.448c-2.679,2.965-0.356,5.068,1.537,7.27
			c3.017,3.511,3.579,12.279,1.165,16.097c-1.879,2.971-5.928,3.052-8.361-0.066c-5.037-6.456-5.139-13.856-3.44-21.387
			c0.517-2.29,1.863-4.271-0.716-6.204c-2.357-1.767-4.635-1.606-6.971-0.26c-11.247,6.48-23.447,10.246-36.144,12.421
			c-6.541,1.12-13.167,2.156-19.777,2.32c-4.994,0.123-8.003,2.346-9.642,6.435c-2.777,6.929-5.061,14.056-7.572,21.092
			c-8.431,23.634-18.15,46.797-25.6,70.795c-1.966,6.335-1.83,12.694-2.022,19.102c-0.613,20.467-0.139,40.962-2.059,61.397
			c-0.684,7.28,0.943,9.314,7.87,11.834c15.456,5.621,30.971,11.083,46.461,16.609c0.47,0.168,0.965,0.288,1.408,0.511
			c2.229,1.122,5.027,2.216,4.557,5.181c-0.575,3.626-3.864,2.986-6.465,2.919c-15.825-0.409-30.753-5.149-45.745-9.559
			c-4.605-1.354-9.161-2.878-13.786-4.157c-2.829-0.782-2.05-3.255-2.25-4.907c-1.405-11.597-1.366-23.241-0.882-34.909
			c0.641-15.461,1.839-30.916,0.861-46.416c-0.207-3.285-1.443-5.001-4.904-4.677c-3.16,0.296-5.869,1.337-5.162,5.13
			c1.898,10.174-0.2,20.254-0.594,30.348c-0.677,17.318-1.315,34.612,0.299,51.892c0.367,3.928-0.421,5.34-4.78,5.747
			c-12.132,1.133-23.484,5.989-35.398,8.301c-7.731,1.501-15.493,2.182-23.254,0.198c-1.084-0.277-2.64-0.589-3.014-1.355
			c-0.701-1.436,0.88-2.435,1.84-3.16c6.418-4.849,13.353-8.837,21.206-10.779c11.597-2.869,22.704-7.518,34.574-9.386
			c2.799-0.441,3.826-2.493,3.535-5.156c-1.779-16.276,1.214-32.585-0.467-48.896c-0.572-5.55,0.519-11.273,0.865-16.916
			c0.273-4.445-0.92-8.527-2.785-12.522c-15.782-33.811-29.063-68.625-41.501-103.773c-2.379-6.724-6.85-9.986-13.754-8.282
			c-16.679,4.116-32.609,1.568-48.273-4.416c-2.652-1.013-4.911-0.416-7.071,1.025c-2.356,1.572-1.278,3.654-0.915,5.815
			c1.28,7.604,0.746,14.914-4.094,21.43c-3.067,4.129-7.618,6.228-10.548,4.563c-2.969-1.686-4.772-8.946-3.127-12.737
			c1.918-4.42,5.717-7.286,8.844-10.718c1.303-1.431,4.033-2.662,2.014-5.309c-1.616-2.118-3.779-2.242-6.294-1.431
			c-4.064,1.311-7.017,4.465-10.816,6.147c-2.645,1.171-6.003,3.653-8.116,0.708c-2.118-2.952-0.067-6.316,2.398-8.898
			c3.399-3.56,7.945-3.835,12.379-4.435c1.97-0.267,3.983-0.289,5.922-0.687c2.028-0.416,4.082-1.268,3.607-3.886
			c-0.434-2.392-2.164-3.985-4.635-3.532c-4.422,0.81-7.644-1.839-11.212-3.437c-1.854-0.831-3.512-2.334-2.84-4.704
			c0.651-2.298,2.914-1.97,4.629-2.02c6.399-0.185,12.839-0.34,16.328,6.715c0.911,1.843,2.709,2.33,4.653,2.317
			C149.115,251.809,150.385,252.747,150.987,255.008z"/>
		<path class="st3" d="M272.731,17.047c12.105-0.211,23.026,0.41,33.918,1.965c3.013,0.43,3.617,1.581,3.135,4.181
			c-3.534,19.098-5.606,38.393-7.726,57.681c-0.208,1.893-0.298,3.675-2.758,4.037c-20.281,2.981-40.511,5.015-60.749-0.642
			c-4.2-1.174-5.528-3.029-5.404-7.267c0.541-18.438,2.787-36.744,3.943-55.13c0.24-3.81,3.059-3.475,5.376-3.601
			C252.923,17.703,263.354,16.471,272.731,17.047z"/>
		<path class="st0" d="M233.964,93.379c20.759,5.06,42.054,4.637,63.379,1.121c2.014-0.332,2.624,0.007,2.687,2.053
			c0.165,5.357-0.847,10.587-1.432,15.865c-0.223,2.012-1.359,2.568-3.259,2.879c-19.525,3.202-39.029,3.221-58.543-0.05
			c-1.501-0.252-2.906-0.184-2.869-2.423C234.032,106.378,233.964,99.929,233.964,93.379z"/>
		<path class="st4" d="M150.987,255.008c-1.102-1.27-2.309-2.333-4.168-2.108c2.833-1.392,3.417-3.58,2.797-6.588
			c-0.883-4.285-0.487-8.578,1.092-12.69c0.593-1.545,1.444-3.311,3.348-3.124c1.654,0.162,2.079,1.966,2.398,3.4
			c1.25,5.623,0.284,10.862-3.294,15.407C151.783,251.054,150.351,252.58,150.987,255.008z"/>
		<path class="st1" d="M264.106,286.278c-14.167,0.393-25.32-6.087-34.838-15.721c-12.002-12.147-17.475-27.158-18.222-44.064
			c-0.172-3.896,0.875-6.502,5.327-6.676c4.714-0.185,5.483,2.787,5.461,6.495c-0.077,12.853,4.444,24.159,12.365,33.977
			c14.731,18.258,35.762,21.893,56.708,10.184c8.011-4.478,14.545-10.444,18.54-18.892c0.35-0.741,0.789-1.485,1.348-2.075
			c2.373-2.502,5.089-3.988,8.338-1.653c3.121,2.244,1.898,5.317,0.397,7.565c-3.963,5.936-8.23,11.68-13.888,16.221
			C293.497,281.387,279.483,285.739,264.106,286.278z"/>
		<path class="st1" d="M274.769,164.938c-0.21-2.849,0.315-6.267,1.366-9.627c3.002-9.601,9.904-14.312,19.451-13.241
			c6.472,0.726,11.425,7.041,12.325,16.061c0.74,7.42-0.434,14.56-3.898,21.236c-3.148,6.069-9.035,9.225-15.574,8.401
			c-6.167-0.778-10.944-5.294-12.573-11.788C275.01,172.567,274.75,169.107,274.769,164.938z"/>
		<path class="st1" d="M260.099,158.553c0.289,9.264-3.632,17.157-8.598,24.523c-3.048,4.521-12.566,4.271-15.861-0.234
			c-7.232-9.887-8.261-20.862-4.49-32.224c1.947-5.867,10.691-10.227,16.818-9.145c7.335,1.295,11.547,5.999,12.118,13.588
			C260.174,156.218,260.099,157.388,260.099,158.553z"/>
	</g>
</g>
</svg>
