<?xml version="1.0" encoding="utf-8"?>
<!-- Generator: Adobe Illustrator 25.0.1, SVG Export Plug-In . SVG Version: 6.00 Build 0)  -->
<!DOCTYPE svg PUBLIC "-//W3C//DTD SVG 1.1//EN" "http://www.w3.org/Graphics/SVG/1.1/DTD/svg11.dtd" [
	<!ENTITY ns_extend "http://ns.adobe.com/Extensibility/1.0/">
	<!ENTITY ns_ai "http://ns.adobe.com/AdobeIllustrator/10.0/">
	<!ENTITY ns_graphs "http://ns.adobe.com/Graphs/1.0/">
	<!ENTITY ns_vars "http://ns.adobe.com/Variables/1.0/">
	<!ENTITY ns_imrep "http://ns.adobe.com/ImageReplacement/1.0/">
	<!ENTITY ns_sfw "http://ns.adobe.com/SaveForWeb/1.0/">
	<!ENTITY ns_custom "http://ns.adobe.com/GenericCustomNamespace/1.0/">
	<!ENTITY ns_adobe_xpath "http://ns.adobe.com/XPath/1.0/">
]>
<svg version="1.1" id="Layer_1" xmlns:x="&ns_extend;" xmlns:i="&ns_ai;" xmlns:graph="&ns_graphs;"
	 xmlns="http://www.w3.org/2000/svg" xmlns:xlink="http://www.w3.org/1999/xlink" x="0px" y="0px" width="512px" height="512px"
	 viewBox="0 0 512 512" style="enable-background:new 0 0 512 512;" xml:space="preserve">
<style type="text/css">
	.st0{fill:#181616;}
	.st1{fill:#E52F33;}
	.st2{fill:#E52E32;}
	.st3{fill:#05995F;}
	.st4{fill:#DE3134;}
	.st5{fill:#D83234;}
	.st6{fill:#D63336;}
	.st7{fill:#D63438;}
	.st8{fill:#C5383A;}
	.st9{fill:#CF363B;}
	.st10{fill:#1A1616;}
	.st11{fill:#1B1616;}
</style>
<metadata>
	<sfw  xmlns="&ns_sfw;">
		<slices></slices>
		<sliceSourceBounds  bottomLeftOrigin="true" height="370.222" width="452.794" x="21.219" y="62.385"></sliceSourceBounds>
	</sfw>
</metadata>
<g id="_x33_UmUFg_1_">
	<g>
		<path class="st0" d="M473.888,242.597c0.63,12.491-0.836,23.988-10.89,33.316c-13.231,12.276-34.751,7.189-40.41-10.006
			c-0.496-1.507,0.796-4.5-2.614-4.372c-2.817,0.106-3.42,2.216-4.079,4.404c-2.73,9.054-8.755,14.601-18.001,16.59
			c-1.297,0.279-3.216,0.243-3.37,1.583c-1.183,10.28-9.834,17.574-9.791,28.846c0.075,19.846-3.63,39.591-3.685,59.513
			c-0.016,5.835-4.325,5.446-7.911,5.403c-22.107-0.265-44.227,0.584-66.321-0.783c-6.177-0.382-12.381-0.407-18.542-0.945
			c-3.073-0.269-4.471,0.266-4.469,3.694c0.003,4.404-2.047,9.524-0.406,13.017c1.737,3.696,7.639,1.453,11.597,2.581
			c11.622,3.31,21.408,9.365,28.747,19.022c5.997,7.89,4.157,17.57-3.942,23.006c-12.021,8.068-25.407,8.191-38.962,6.59
			c-11.031-1.303-21.72-4.223-31.413-9.834c-3.544-2.051-6.185-1.792-9.55,0.39c-18.239,11.829-37.988,17.504-59.863,13.956
			c-6.765-1.097-12.043-4.051-14.584-10.82c-2.562-6.825,1.084-11.326,5.563-15.689c9.492-9.247,20.955-14.635,33.797-17.075
			c3.551-0.675,4.685-1.834,4.592-5.473c-0.197-7.729,0.027-15.478,0.363-23.206c0.129-2.962-0.698-3.771-3.663-3.675
			c-28.535,0.928-57.021-1.3-85.541-1.501c-7.369-0.052-9.019-2.255-8.374-9.831c0.768-9.012,2.422-17.979,1.657-27.087
			c0-3.542,0.001-7.085,0.001-10.627c0.086-2.322,0.101-4.65,0.276-6.966c0.231-3.046-0.664-4.993-4.145-4.738
			c-1.147-0.258-2.406-0.298-3.046-1.552c-1.186-1.843-3.033-2.787-4.947-3.641c-1.014-0.981-2.029-1.963-3.043-2.944
			c-1.595-2.333-3.189-4.666-4.784-7c-2.622-5.001-2.622-5.001-13.047-9.16c-2.353-2.055-4.707-4.109-7.06-6.164
			c-0.45-0.993-0.9-1.986-1.351-2.979c-1.065-4.39,0.886-9.066-1.268-13.352c-3.657-0.461-5.867,2.023-8.524,3.901
			c-14.793,10.454-32.157,10.228-40.104-11.004c-7.078-18.912,11.005-41.787,31.202-40.462c9.712,0.637,18.104,7.699,19.951,17.375
			c0.517,2.711,1.146,3.732,3.995,3.706c8.625-0.079,17.257-0.013,25.877,0.28c3.584,0.122,4.34-1.291,4.509-4.622
			c1.599-31.575,4.701-63.069,5.269-94.697c0.092-5.141,2.192-6.134,6.855-6.198c26.713-0.371,53.343-3.402,81.97-1.961
			c-3.955-2.978-6.514-4.794-8.937-6.775c-1.32-1.079-3.253-2.31-2.293-4.294c1.114-2.303,3.652-1.612,5.288-0.942
			c4.689,1.919,9.295,4.098,13.748,6.517c4.833,2.625,7.268,0.968,8.486-3.926c1.708-6.86,3.43-13.718,5.28-20.541
			c1.516-5.591,3.835-10.822,7.686-15.26c6.158-7.097,16.332-6.177,21.062,1.924c0.443,0.758,0.741,1.6,1.105,2.404
			c4.718,10.427,4.624,10.357,11.784,0.673c4.454-6.025,8.931-13.493,17.746-11.445c8.545,1.985,7.976,10.691,9.308,17.414
			c1.802,9.098,4.138,18.136,4.485,27.459c0.119,3.206,1.64,3.184,3.768,2.219c4.019-1.824,8.065-3.624,11.915-5.767
			c2.189-1.219,4.282-2.085,6.815-2.079c1.691,0.004,3.15,0.213,3.839,1.893c0.721,1.76,0.667,3.58-1.004,4.78
			c-2.832,2.034-5.787,3.898-9.945,6.671c4.94,0,8.735-0.057,12.529,0.009c20.112,0.35,40.232,0.028,60.322,1.729
			c5.767,0.489,6.47,2.278,6.174,7.821c-1.438,26.939-2.182,53.915-3.122,80.88c-0.478,13.706-0.432,13.728,13.242,14.413
			c4.155,0.208,7.71,1.739,10.771,4.498c5.735,5.168,10.259,4.253,13.938-2.829c6.555-12.616,19.167-18.473,31.336-14.282
			C466.374,227.543,471.291,234.089,473.888,242.597z M102.526,292.201c4.25,7.863,8.259,11.344,14.412,12.763
			c4.933,1.137,9.533,1.024,13.679-2.66c2.262-2.01,5.605-4.209,7.942-0.672c2.265,3.429-1.045,5.536-3.533,7.421
			c-2.155,1.633-4.549,2.732-7.25,3.045c-3.499,0.405-4.614,2.279-4.594,5.801c0.076,13.487,0.488,27.005-1.244,40.429
			c-0.512,3.968,1.056,4.942,4.704,5.016c9.282,0.187,18.555,0.934,27.837,1.05c18.805,0.233,37.614,0.248,56.422,0.24
			c5.673-0.002,8.482,1.798,8.065,8.23c-0.644,9.922-0.765,19.915-0.406,29.853c0.233,6.456-2.059,9.147-8.484,9.727
			c-12.868,1.16-23.467,7.402-32.602,16.223c-1.959,1.891-4.751,3.947-3.288,7.316c1.318,3.034,3.902,4.312,7.318,4.847
			c14.762,2.309,28.336-0.949,41.826-6.95c11.82-5.258,18.235-12.464,16.601-26.284c-1.24-10.488-0.687-21.196-0.756-31.807
			c-0.015-2.247-0.404-5.427,3.222-5.428c3.258,0,5.361,1.834,5.538,5.323c0.067,1.325,0.031,2.655,0.027,3.982
			c-0.034,12.834,0.061,25.671-0.19,38.5c-0.073,3.716,1.083,6.201,4.073,8.316c9.172,6.487,19.76,8.725,30.54,9.793
			c10.613,1.051,21.307,1.042,30.668-5.522c6.451-4.524,6.801-8.853,1.768-14.797c-9.093-10.738-21.099-14.002-34.449-13.725
			c-5.033,0.104-7.935-1.587-6.888-6.831c1.48-7.414,1.923-14.888,1.986-22.386c0.032-3.783,0.918-5.829,5.211-5.541
			c5.953,0.399,11.957,0.125,17.894,0.652c22.744,2.019,45.529,0.246,68.283,0.96c2.728,0.086,4.549-0.556,4.795-3.94
			c1.218-16.746,2.561-33.485,4.037-50.211c0.473-5.358-1.019-6.282-6.237-4.678c-10.018,3.078-20.157,2.62-29.667-2.222
			c-2.529-1.287-6.575-3.182-4.654-6.714c1.746-3.211,5.45-1.864,8.222-0.095c4.913,3.135,10.498,3.686,15.974,3.357
			c10.408-0.626,18.597-5.294,23.243-15.043c0.783-1.643,1.973-5.197-0.252-4.847c-4.97,0.78-9.162-3.774-14.128-1.189
			c-4.64,2.415-8.082,0.502-11.663-3.001c-4.038-3.95-5.481-8.288-5.094-13.663c0.097-1.353,0.728-3.461-1.479-3.77
			c-1.482-0.207-2.005,1.465-2.69,2.578c-1.158,1.88-2.246,3.814-3.529,5.605c-10.18,14.209-25.499,14.704-36.751,1.207
			c-0.849-1.018-1.779-2.029-2.361-3.198c-1.376-2.765-2.913-2.514-5.191-0.927c-19.064,13.274-40.775,16.422-63.239,15.656
			c-16.677-0.569-33.18-2.913-47.367-12.741c-4.074-2.822-6.671-3.076-10.903-0.139c-11.734,8.146-22.102,6.803-31.944-3.406
			c-2.041-2.117-3.841-4.574-7.174-3.616c-3.704,1.065-1.95,4.454-2.337,6.783c-1.922,11.565-7.62,16.162-19.86,15.539
			c-1.461-0.074-2.616,0.23-3.592,1.216C110.233,290.432,106.575,291.306,102.526,292.201z M130.478,239.68
			c3.097,0,6.195-0.043,9.292,0.015c2.225,0.042,3.907-0.732,4.716-2.881c2.195-5.827,8.471-8.95,10.708-13.876
			c2.222-4.893-2.354-11.327-1.83-17.375c0.114-1.318,0.045-2.654,0.046-3.981c0.002-2.599,0.184-5.105,3.798-4.739
			c3.029,0.306,4.88,1.652,4.597,5.134c-0.325,3.987,0.504,7.898,1.031,11.846c0.705,5.274,2.81,7.761,8.578,7.421
			c7.514-0.443,12.24,4.171,15.547,10.43c3.608,6.829,4.079,14.575,2.069,21.36c-2.505,8.456,1.951,11.05,7.774,13.801
			c27.517,12.998,55.508,12.526,83.712,2.671c6.286-2.196,11.782-5.983,16.828-10.424c2.146-1.889,3.348-3.798,3.482-6.732
			c0.511-11.234,6.343-19.834,16.227-23.882c7.968-3.263,10.963-8.898,13.27-15.926c1.24-3.777,2.416-7.586,3.375-11.441
			c0.829-3.335,2.026-6.254,6.132-4.907c3.818,1.253,3.766,4.491,2.768,7.714c-1.829,5.91-3.61,11.841-5.683,17.667
			c-1.053,2.959-0.902,4.684,2.295,6.263c4.672,2.308,8.025,6.193,9.992,11.111c2.215,5.541,6.22,5.863,10.373,2.858
			c4.276-3.094,8.825-4.245,13.75-3.367c4.649,0.829,5.78-1.023,5.828-5.243c0.331-28.745,0.909-57.486,2.965-86.171
			c0.288-4.023-1.102-5.4-5.168-5.49c-12.598-0.28-25.184-1.128-37.782-1.403c-20.744-0.453-41.523-2.717-62.225,0.466
			c-9.263,1.424-18.715,2.047-27.769,0.539c-18.462-3.075-36.936-1.997-55.428-2.158c-22.126-0.193-44.218,0.422-66.288,2.117
			c-3.891,0.299-5.289,1.44-5.354,5.5c-0.425,26.757-2.251,53.446-4.089,80.137C117.125,239.672,117.435,239.693,130.478,239.68z
			 M256.709,135.058c10.784-0.179,18.384-1.59,26.047-2.43c4.46-0.489,5.361-2.643,5.289-6.56
			c-0.203-11.104-2.514-21.873-4.901-32.626c-0.376-1.692,0.431-4.496-2.407-4.787c-2.218-0.228-3.489,1.796-4.694,3.293
			c-3.445,4.279-5.99,9.275-10.609,12.602c-5.934,4.275-11.206,3.52-15.161-2.608c-1.291-2-1.831-4.468-2.915-6.621
			c-1.238-2.46-1.531-6.133-5.014-6.343c-3.324-0.2-4.524,3.132-6.138,5.412c-1.008,1.423-1.916,3.027-2.406,4.687
			c-2.558,8.669-4.642,17.494-7.553,26.038c-1.707,5.008,0.438,6.477,4.554,6.978C240.426,133.265,250.066,134.304,256.709,135.058z
			 M359.757,265.018c0,2.065-0.157,3.198,0.031,4.271c0.486,2.786,0.457,6.156,3.664,7.259c3.048,1.049,4.754-1.746,6.566-3.562
			c6.155-6.168,7.647-13.797,6.149-22.035c-1.169-6.432-5.364-7.577-10.522-3.323C359.723,252.512,360.948,259.622,359.757,265.018z
			 M128.523,265.884c-0.51-3.913,0.693-9.338-5.023-9.853c-4.953-0.446-6.905,4.13-7.914,8.253
			c-1.114,4.549-0.39,9.019,1.952,13.227c2.121,3.81,4.542,3.941,7.014,0.665C127.242,274.61,128.822,270.539,128.523,265.884z
			 M80.786,271.525c-0.048,4.825,0.951,9.164,5.901,9.236c4.785,0.069,4.659-4.451,4.582-7.998
			c-0.113-5.24,1.776-9.923,3.634-14.649c0.443-1.126,1.864-2.302,0.64-3.544c-1.324-1.343-3.085-0.554-4.316,0.155
			C84.593,258.541,81.308,264.478,80.786,271.525z M395.462,273.638c10.965-1.459,14.924-17.897,12.592-23.573
			c-0.629-1.532-2.016-3.015-3.44-3.903c-2.834-1.768-5.127-1.647-5.019,2.648C399.799,256.961,400.088,265.126,395.462,273.638z
			 M379.094,276.577c11.626-2.993,14.461-23.066,11.566-29.725c-0.713-1.639-1.815-3.265-3.939-2.853
			c-2.299,0.447-2.316,2.431-2.086,4.21C385.88,257.83,384.829,267.06,379.094,276.577z M110.34,255.714
			c-9.135,3.266-14.53,19.487-9.74,26.037c1.108,1.515,2.511,2.673,4.45,1.925c2.18-0.841,2.533-2.977,2.498-4.955
			C107.413,271.147,106.677,263.545,110.34,255.714z M431.874,246.93c0.378,1.771,0.075,4.296,1.953,6.209
			c1.433,1.46,3.482,2.369,3.923-0.213c0.933-5.467,4.111-9.507,7.161-13.753c1.257-1.749,1.24-3.728-0.261-5.451
			c-1.566-1.797-3.406-1.446-5.397-0.719C432.878,235.33,432.192,240.721,431.874,246.93z M42.299,232.256
			c-0.255-1.891-1.756-2.823-3.948-2.888c-4.746-0.141-6.925,3.092-8.642,6.785c-1.017,2.188-2.228,5.024,0.094,6.554
			c2.282,1.503,2.788-1.892,4.217-2.941c1.562-1.147,3.175-2.237,4.835-3.237C40.379,235.611,41.845,234.712,42.299,232.256z
			 M153.56,240.289c3.019-2.353,6.895-1.606,10.581-2.006c1.59-0.173,2.948-1.255,3.162-2.962c0.219-1.744-1.019-2.767-2.429-3.595
			c-4.025-2.364-12.634,1.184-13.741,5.759C150.74,239.112,150.791,240.707,153.56,240.289z M311.41,250.719
			c1.674-3.145,2.218-6.763,4.875-9.283c1.178-1.118,1.398-2.806,0.117-4.171c-1.642-1.749-3.305-0.621-4.749,0.309
			C307.629,240.165,307.45,246.221,311.41,250.719z"/>
		<path class="st1" d="M102.526,292.201c4.049-0.895,7.707-1.769,10.487-4.578c0.976-0.986,2.131-1.291,3.592-1.216
			c12.24,0.623,17.938-3.973,19.86-15.539c0.387-2.328-1.367-5.718,2.337-6.783c3.333-0.958,5.133,1.499,7.174,3.616
			c9.842,10.209,20.211,11.552,31.944,3.406c4.231-2.937,6.829-2.684,10.903,0.139c14.186,9.828,30.689,12.172,47.367,12.741
			c22.465,0.766,44.175-2.383,63.239-15.656c2.278-1.586,3.816-1.838,5.191,0.927c0.581,1.169,1.512,2.179,2.361,3.198
			c11.252,13.496,26.572,13.002,36.751-1.207c1.284-1.792,2.371-3.725,3.529-5.605c0.686-1.113,1.208-2.785,2.69-2.578
			c2.207,0.308,1.576,2.416,1.479,3.77c-0.387,5.375,1.056,9.713,5.094,13.663c3.581,3.503,7.023,5.416,11.663,3.001
			c4.966-2.585,9.158,1.97,14.128,1.189c2.225-0.349,1.035,3.204,0.252,4.847c-4.646,9.749-12.835,14.417-23.243,15.043
			c-5.476,0.329-11.061-0.222-15.974-3.357c-2.772-1.769-6.476-3.116-8.222,0.095c-1.92,3.532,2.126,5.427,4.654,6.714
			c9.51,4.842,19.649,5.3,29.667,2.222c5.219-1.603,6.71-0.68,6.237,4.678c-1.476,16.726-2.819,33.464-4.037,50.211
			c-0.246,3.385-2.068,4.026-4.795,3.94c-22.754-0.714-45.539,1.06-68.283-0.96c-5.937-0.527-11.941-0.253-17.894-0.652
			c-4.292-0.288-5.179,1.759-5.211,5.541c-0.063,7.497-0.505,14.972-1.986,22.386c-1.047,5.244,1.855,6.935,6.888,6.831
			c13.35-0.276,25.356,2.987,34.449,13.725c5.033,5.944,4.683,10.273-1.768,14.797c-9.361,6.564-20.055,6.573-30.668,5.522
			c-10.779-1.068-21.368-3.306-30.54-9.793c-2.99-2.115-4.145-4.6-4.073-8.316c0.251-12.83,0.156-25.666,0.19-38.5
			c0.003-1.328,0.04-2.658-0.027-3.982c-0.177-3.49-2.28-5.324-5.538-5.323c-3.626,0-3.237,3.181-3.222,5.428
			c0.069,10.611-0.484,21.319,0.756,31.807c1.634,13.82-4.782,21.026-16.601,26.284c-13.489,6.001-27.064,9.259-41.826,6.95
			c-3.415-0.534-6-1.812-7.318-4.847c-1.463-3.369,1.329-5.426,3.288-7.316c9.136-8.82,19.735-15.063,32.602-16.223
			c6.426-0.579,8.717-3.271,8.484-9.727c-0.359-9.938-0.238-19.93,0.406-29.853c0.417-6.432-2.392-8.232-8.065-8.23
			c-18.807,0.008-37.616-0.007-56.422-0.24c-9.282-0.115-18.554-0.863-27.837-1.05c-3.649-0.073-5.217-1.047-4.704-5.016
			c1.732-13.424,1.32-26.941,1.244-40.429c-0.02-3.522,1.095-5.395,4.594-5.801c2.701-0.313,5.095-1.412,7.25-3.045
			c2.488-1.885,5.798-3.991,3.533-7.421c-2.336-3.537-5.679-1.338-7.942,0.672c-4.146,3.683-8.746,3.797-13.679,2.66
			C110.785,303.545,106.776,300.064,102.526,292.201z"/>
		<path class="st2" d="M130.478,239.68c-13.043,0.013-13.353-0.008-12.462-12.946c1.839-26.691,3.665-53.381,4.089-80.137
			c0.064-4.06,1.463-5.201,5.354-5.5c22.07-1.696,44.162-2.31,66.288-2.117c18.492,0.161,36.966-0.917,55.428,2.158
			c9.053,1.508,18.505,0.886,27.769-0.539c20.702-3.183,41.481-0.919,62.225-0.466c12.598,0.275,25.184,1.123,37.782,1.403
			c4.066,0.09,5.456,1.467,5.168,5.49c-2.056,28.685-2.634,57.426-2.965,86.171c-0.049,4.221-1.18,6.072-5.828,5.243
			c-4.925-0.878-9.474,0.273-13.75,3.367c-4.153,3.005-8.158,2.684-10.373-2.858c-1.966-4.918-5.319-8.803-9.992-11.111
			c-3.197-1.579-3.348-3.304-2.295-6.263c2.072-5.826,3.854-11.757,5.683-17.667c0.997-3.223,1.05-6.462-2.768-7.714
			c-4.106-1.347-5.302,1.572-6.132,4.907c-0.959,3.856-2.135,7.664-3.375,11.441c-2.307,7.027-5.302,12.663-13.27,15.926
			c-9.883,4.047-15.715,12.648-16.227,23.882c-0.134,2.934-1.336,4.843-3.482,6.732c-5.045,4.441-10.542,8.228-16.828,10.424
			c-28.205,9.855-56.196,10.327-83.712-2.671c-5.823-2.751-10.28-5.345-7.774-13.801c2.01-6.785,1.54-14.532-2.069-21.36
			c-3.307-6.259-8.033-10.873-15.547-10.43c-5.768,0.34-7.874-2.147-8.578-7.421c-0.528-3.948-1.356-7.859-1.031-11.846
			c0.283-3.482-1.568-4.828-4.597-5.134c-3.614-0.365-3.796,2.14-3.798,4.739c-0.001,1.327,0.068,2.663-0.046,3.981
			c-0.524,6.048,4.052,12.482,1.83,17.375c-2.237,4.926-8.513,8.049-10.708,13.876c-0.81,2.149-2.491,2.923-4.716,2.881
			C136.673,239.637,133.575,239.68,130.478,239.68z M219.149,194.233c0.045,8.497,3.553,13.511,8.618,13.922
			c5.738,0.465,11.075-4.165,12.45-10.609c0.895-4.198,0.404-8.339-0.1-12.5c-0.388-3.204-1.187-6.323-4.816-7.141
			c-3.806-0.859-7.711-0.615-10.307,2.752C221.579,185.085,219.258,190.077,219.149,194.233z M293.492,191.557
			c-0.093-1.765-0.06-3.547-0.306-5.29c-0.491-3.486-0.657-7.467-5.02-8.398c-4.615-0.984-8.844-0.032-11.513,4.418
			c-1.019,1.698-2.042,3.422-2.795,5.245c-2.938,7.116-2.032,14.758,2.161,18.654c3.024,2.81,6.546,2.549,9.883,0.943
			C292.431,203.986,293.938,198.21,293.492,191.557z"/>
		<path class="st3" d="M256.709,135.058c-6.643-0.754-16.283-1.793-25.907-2.966c-4.116-0.502-6.26-1.97-4.554-6.978
			c2.912-8.545,4.995-17.369,7.553-26.038c0.49-1.66,1.398-3.264,2.406-4.687c1.614-2.28,2.814-5.612,6.138-5.412
			c3.483,0.21,3.775,3.883,5.014,6.343c1.084,2.153,1.625,4.621,2.915,6.621c3.955,6.129,9.227,6.883,15.161,2.608
			c4.619-3.328,7.164-8.324,10.609-12.602c1.205-1.497,2.476-3.521,4.694-3.293c2.838,0.291,2.031,3.095,2.407,4.787
			c2.387,10.754,4.698,21.522,4.901,32.626c0.072,3.918-0.829,6.071-5.289,6.56C275.093,133.468,267.493,134.878,256.709,135.058z"
			/>
		<path class="st4" d="M359.757,265.018c1.191-5.396-0.034-12.506,5.888-17.39c5.158-4.254,9.353-3.109,10.522,3.323
			c1.497,8.238,0.005,15.867-6.149,22.035c-1.812,1.816-3.518,4.61-6.566,3.562c-3.207-1.103-3.178-4.473-3.664-7.259
			C359.601,268.216,359.757,267.084,359.757,265.018z"/>
		<path class="st5" d="M128.523,265.884c0.299,4.655-1.28,8.726-3.971,12.292c-2.472,3.276-4.893,3.145-7.014-0.665
			c-2.343-4.208-3.066-8.678-1.952-13.227c1.009-4.123,2.961-8.699,7.914-8.253C129.216,256.546,128.013,261.971,128.523,265.884z"
			/>
		<path class="st6" d="M80.786,271.525c0.522-7.048,3.807-12.984,10.441-16.8c1.231-0.708,2.992-1.498,4.316-0.155
			c1.224,1.242-0.197,2.418-0.64,3.544c-1.858,4.726-3.747,9.409-3.634,14.649c0.076,3.547,0.202,8.067-4.582,7.998
			C81.737,280.689,80.738,276.351,80.786,271.525z"/>
		<path class="st7" d="M395.462,273.638c4.626-8.512,4.337-16.677,4.133-24.828c-0.108-4.295,2.185-4.416,5.019-2.648
			c1.424,0.888,2.81,2.371,3.44,3.903C410.386,255.741,406.427,272.178,395.462,273.638z"/>
		<path class="st8" d="M379.094,276.577c5.735-9.518,6.786-18.748,5.541-28.369c-0.23-1.779-0.213-3.763,2.086-4.21
			c2.124-0.413,3.226,1.214,3.939,2.853C393.556,253.511,390.721,273.584,379.094,276.577z"/>
		<path class="st9" d="M110.34,255.714c-3.663,7.831-2.927,15.433-2.793,23.007c0.035,1.978-0.318,4.114-2.498,4.955
			c-1.938,0.748-3.342-0.41-4.45-1.925C95.81,275.201,101.205,258.98,110.34,255.714z"/>
		<path class="st10" d="M219.149,194.233c0.109-4.156,2.43-9.147,5.845-13.577c2.596-3.367,6.501-3.611,10.307-2.752
			c3.629,0.819,4.428,3.938,4.816,7.141c0.504,4.161,0.995,8.302,0.1,12.5c-1.374,6.444-6.712,11.074-12.45,10.609
			C222.702,207.744,219.194,202.73,219.149,194.233z"/>
		<path class="st11" d="M293.492,191.557c0.446,6.653-1.06,12.429-7.59,15.572c-3.337,1.606-6.858,1.867-9.883-0.943
			c-4.194-3.896-5.1-11.538-2.161-18.654c0.753-1.823,1.776-3.547,2.795-5.245c2.669-4.45,6.899-5.402,11.513-4.418
			c4.362,0.931,4.529,4.912,5.02,8.398C293.431,188.01,293.398,189.792,293.492,191.557z"/>
	</g>
</g>
</svg>
