<?xml version="1.0" encoding="utf-8"?>
<!-- Generator: Adobe Illustrator 25.0.1, SVG Export Plug-In . SVG Version: 6.00 Build 0)  -->
<!DOCTYPE svg PUBLIC "-//W3C//DTD SVG 1.1//EN" "http://www.w3.org/Graphics/SVG/1.1/DTD/svg11.dtd" [
	<!ENTITY ns_extend "http://ns.adobe.com/Extensibility/1.0/">
	<!ENTITY ns_ai "http://ns.adobe.com/AdobeIllustrator/10.0/">
	<!ENTITY ns_graphs "http://ns.adobe.com/Graphs/1.0/">
	<!ENTITY ns_vars "http://ns.adobe.com/Variables/1.0/">
	<!ENTITY ns_imrep "http://ns.adobe.com/ImageReplacement/1.0/">
	<!ENTITY ns_sfw "http://ns.adobe.com/SaveForWeb/1.0/">
	<!ENTITY ns_custom "http://ns.adobe.com/GenericCustomNamespace/1.0/">
	<!ENTITY ns_adobe_xpath "http://ns.adobe.com/XPath/1.0/">
]>
<svg version="1.1" id="Layer_1" xmlns:x="&ns_extend;" xmlns:i="&ns_ai;" xmlns:graph="&ns_graphs;"
	 xmlns="http://www.w3.org/2000/svg" xmlns:xlink="http://www.w3.org/1999/xlink" x="0px" y="0px" width="512px" height="512px"
	 viewBox="0 0 512 512" style="enable-background:new 0 0 512 512;" xml:space="preserve">
<style type="text/css">
	.st0{fill:#FEFEFE;}
	.st1{fill:#1D1D1B;}
	.st2{fill:#242422;}
	.st3{fill:#242423;}
	.st4{fill:#252524;}
	.st5{fill:#252525;}
	.st6{fill:#252523;}
	.st7{fill:#272726;}
	.st8{fill:#FED200;}
	.st9{fill:#025FAB;}
	.st10{fill:#DB042B;}
	.st11{fill:#B26403;}
	.st12{fill:#FDD201;}
	.st13{fill:#B26404;}
	.st14{fill:#FCD103;}
	.st15{fill:#FAD105;}
	.st16{fill:#FAD104;}
	.st17{fill:#F9D104;}
	.st18{fill:#D7D7D5;}
</style>
<metadata>
	<sfw  xmlns="&ns_sfw;">
		<slices></slices>
		<sliceSourceBounds  bottomLeftOrigin="true" height="512" width="512" x="0" y="0"></sliceSourceBounds>
	</sfw>
</metadata>
<g id="ydWVhu_1_">
	<g>
		<path class="st0" d="M511.909,255.966c0,83.946-0.021,167.892,0.082,251.838c0.004,3.221-0.374,4.199-3.986,4.196
			c-168.059-0.121-336.118-0.116-504.177-0.022c-3.2,0.002-3.789-0.819-3.788-3.863C0.121,340.057,0.129,171.998,0,3.939
			c-0.003-3.742,1.177-3.913,4.266-3.911C172.158,0.107,340.051,0.113,507.943,0c3.486-0.002,4.061,0.775,4.057,4.128
			C511.884,88.074,511.909,172.02,511.909,255.966z"/>
		<path class="st1" d="M146.36,388.859c13.034-9.314,24.441-20.652,41.787-21.911c-2.756-4.268-5.265-8.045-7.665-11.889
			c-14.262-22.85-23.604-47.535-27.313-74.249c-0.386-2.779-1.749-3.446-4.001-4.135c-9.06-2.77-18.099-5.646-26.175-11.959
			c-1.343,7.687-5.636,12.051-13.273,12.643c-8.921,0.692-16.891-1.57-23.094-8.237c-3.674-3.948-3.528-8.4,0.225-12.539
			c1.741-1.92,2.816-3.488,1.534-6.085c-0.476-0.964-0.448-2.325-0.264-3.441c1.19-7.219,4.419-13.837,5.81-21.13
			c1.113-5.838,8.24-7.135,14.049-7.399c2.669-0.121,3.561-0.878,4.252-3.476c2.167-8.142,7.022-12.213,14.148-12.556
			c7.139-0.344,13.193,3.858,16.06,11.148c3.061,7.782,1.84,14.588-4.247,19.375c-2.56,2.013-1.731,2.969-0.02,4.395
			c1.146,0.955,2.34,1.88,3.618,2.643c8.105,4.838,9.286,4.07,10.35-5.205c1.457-12.703,2.627-25.518,7.184-37.607
			c1.291-3.424-0.548-2.919-2.61-3.266c-8.932-1.505-16.896-4.691-19.656-14.4c-3.122-10.982,6.451-22.549,19.08-23.544
			c4.806-0.379,9.39,0.4,13.258,3.275c2.351,1.747,3.363,1.667,4.468-1.111c6.816-17.127,14.225-33.975,24.592-49.811
			c-13.599-4.601-25.734-11.253-36.879-19.807c-7.315-5.615-11.943-12.702-13.946-21.702c-3.699-16.619,8.725-29.123,25.412-25.274
			c10.787,2.488,18.957,9.383,26.715,16.743c5.193,4.926,10.169,10.09,15.082,15.298c2.121,2.248,3.173,2.657,5.462-0.221
			c12.599-15.84,28.802-25.468,49.309-26.676c30.087-1.772,61.509,15.005,67.367,54.393c0.935,6.285,1.374,12.615,0.761,18.921
			c-0.25,2.568,1.221,6.281-3.242,7.249c-1.031,0.223-0.422,1.44-0.126,2.134c9.505,22.279,5.86,44.685,0.555,67.065
			c-1.338,5.644-3.166,11.175-4.886,16.722c-0.646,2.085-1.007,3.526,1.737,4.518c7.934,2.867,14.879,7.464,20.698,13.538
			c1.998,2.085,3.458,0.937,5.242,0.34c10.053-3.367,22.533,1.499,27.541,10.736c2.949,5.438,2.686,10.145-1.448,14.681
			c-1.686,1.85-1.934,3.641-1.86,5.844c0.15,4.469-0.142,8.808-5.066,10.921c-1.504,0.645-0.984,1.895-1.107,2.978
			c-0.911,8.005-4.784,11.405-12.871,11.194c-5.384-0.141-9.95-2.151-13.864-5.917c-0.844-0.812-0.84-3.525-2.941-2.202
			c-2.014,1.268-2.297,3.045-1.199,5.535c3.544,8.042,7.232,16.068,9.435,24.615c6.108,23.706,5.61,46.75-7.366,68.411
			c-3.988,6.658-9.229,12.241-15.51,16.739c-2.112,1.512-2.303,2.876-1.296,4.906c1.179,2.378,2.158,4.872,3.519,7.139
			c4.593,7.651,12.25,9.225,19.594,4.129c3.872-2.686,6.929-6.247,9.976-9.759c4.476-5.159,10.088-7.382,16.779-7.289
			c1.832,0.026,3.748,0.368,5.483-0.042c8.51-2.011,13.363,3.074,17.828,8.937c7.183,9.433,11.579,20.154,13.887,31.684
			c3.059,15.275,3.826,30.741,1.744,46.18c-1.447,10.734-9.528,15.124-19.612,11.296c-1.351-0.513-2.571-0.775-3.827-0.246
			c-9.235,3.894-24.675-5.165-28.28-13.699c-3.965-9.386-8.115-18.64-8.404-28.983c-0.109-3.914-1.093-4.488-4.818-3.416
			c-16.679,4.801-31.625,1.63-44.07-10.831c-6.438-6.446-10.247-14.454-10.874-23.502c-0.327-4.722-2.023-5.199-6.105-4.746
			c-26.064,2.892-50.609-2.1-73.579-14.779c-0.581-0.321-1.269-0.536-1.725-0.985c-5.392-5.315-10.989-4.408-17.578-1.846
			c-26.551,10.327-46.57,27.838-60.177,52.79c-0.08,0.146-0.156,0.293-0.235,0.44c-2.812,5.223-8.099,8.198-11.799,12.781
			c-5.115,6.335-13.879,4.692-20.285-1.772c-7.762-7.831-12.853-17.317-15.886-27.864c-4.914-17.089-5.942-34.372-1.637-51.737
			c1.831-7.388,5.02-14.137,11.753-18.491c3.993-2.582,8.235-3.778,12.625-1.086c1.657,1.016,3.194,0.647,4.802,0.442
			c11.999-1.532,19.719,3.175,24.01,14.556c1.124,2.98,1.873,6.03,2.24,9.165C145.882,381.669,146.04,384.825,146.36,388.859z"/>
		<path class="st2" d="M423.559,421.872c3.457-3.231,6.25-6.034,7.78-9.805c2.705-6.67-0.363-11.606-7.453-12.028
			c-1.388-0.083-3.598,0.541-3.68-1.441c-0.108-2.626,2.417-1.622,3.799-1.671c7.03-0.251,12.392,4.423,12.906,11.042
			C437.45,414.905,431.922,420.996,423.559,421.872z"/>
		<path class="st3" d="M168.822,445.139c-1.222,7.353-3.921,13.427-9.59,17.839c-1.441,1.122-3.1,1.901-5.008,1.952
			c-1.521,0.041-3.453,0.163-3.957-1.361c-0.596-1.803,1.637-1.673,2.64-2.238c4.246-2.39,8.239-5.089,10.497-9.542
			c1.804-3.559,2.8-7.221-1.585-9.976c-0.884-0.555-2.279-1.433-1.35-2.719c0.944-1.307,2.453-0.864,3.532,0.022
			C166.117,440.853,168.79,442.245,168.822,445.139z"/>
		<path class="st4" d="M127.463,286.041c0.809,2.495,0.819,4.646-0.217,6.822c-2.669,5.608-7.7,7.024-13.21,7.003
			c-5.507-0.022-10.53-1.522-13.242-7.031c-0.57-1.157-1.534-2.732-0.201-3.587c1.234-0.792,2.402,0.547,3.28,1.559
			c7.248,8.353,14.82,7.695,20.722-1.799C125.258,287.94,125.763,286.696,127.463,286.041z"/>
		<path class="st5" d="M401.7,261.069c2.078-3.914,3.798-6.719,5.104-9.704c2.547-5.82,1.118-9.058-4.742-11.635
			c-1.109-0.488-3.041-0.883-2.063-2.602c1.083-1.902,3.232-1.456,4.929-0.85c6.667,2.382,9.114,13.945,4.161,19.503
			C407.313,257.774,405.137,259.282,401.7,261.069z"/>
		<path class="st6" d="M171.264,463.367c2.018-1.901,3.454-3.208,4.84-4.566c4.518-4.432,4.913-7.107,1.978-12.721
			c-0.5-0.956-1.714-2.022-0.544-3.053c0.951-0.838,2.218-0.12,3.239,0.364c0.575,0.273,1.063,0.796,1.498,1.289
			c2.572,2.914,2.439,9.09-0.429,14.099C179.734,462.466,176.921,464.987,171.264,463.367z"/>
		<path class="st7" d="M447.746,411.618c0.72-2.338,2.36-4.289,2.218-6.856c-0.177-3.215-0.686-5.94-4.749-6.225
			c-1.874-0.131-4.253-1.033-3.702-3.083c0.627-2.333,3.317-1.777,5.168-1.235c5.771,1.691,9.455,11.431,5.931,15.563
			C451.452,411.143,450.007,412.346,447.746,411.618z"/>
		<path class="st8" d="M374.492,267.822c-4.05-3.696-7.25-7.415-11.716-9.403c-1.255-0.559-2.951-2.137-4.253,0.169
			c-1.125,1.992,0.319,3.168,1.543,4.209c1.767,1.502,3.888,2.608,5.557,4.198c3.582,3.411,4.091,11.961,1.007,13.974
			c-4.594,2.997-11.665,0.512-13.752-4.776c-1.437-3.642-0.606-7.605-1.719-11.288c-0.285-0.944-0.259-1.998-0.628-2.898
			c-0.433-1.056-1.013-2.067-2.482-2.09c-1.453-0.022-2.159,0.842-2.519,1.982c-0.946,2.999-1.758,6.04-2.654,9.055
			c-1.64,5.514-6.231,9.014-10.794,8.483c-3.081-0.358-4.365-1.659-3.822-4.901c1.275-7.619,4.705-14.008,11.395-17.892
			c4.445-2.581,3.424-4.993,0.883-7.706c-7.749-8.274-17.031-11.89-28.327-8.7c-9.232,2.606-17.424,7.262-25.05,12.972
			c-1.051,0.787-2.075,1.753-2.752,2.857c-0.808,1.317-0.88,2.891,0.254,4.168c1.226,1.381,2.499,0.429,3.577-0.239
			c1.549-0.96,2.981-2.113,4.439-3.214c7.401-5.59,15.606-9.376,24.677-11.411c2.752-0.618,3.992,0.107,4.611,2.784
			c0.783,3.385,1.571,6.807,3.594,9.751c0.877,1.276,0.564,2.474-0.091,3.741c-0.915,1.768-1.797,3.561-2.554,5.401
			c-4.646,11.297-0.917,17.676,11.15,18.896c1.678,0.17,2.735,0.584,3.503,2.115c10.985,21.894,17.379,44.63,11.31,69.195
			c-3.608,14.603-12.39,26.018-24.563,34.669c-2.906,2.065-3.514,3.845-2.1,6.859c1.548,3.299,2.683,6.808,4.403,10.008
			c5.254,9.779,14.178,13.515,24.577,9.939c4.568-1.571,8.082-1.599,10.57,2.991c2.619,4.835,1.462,11.26-2.222,14.324
			c-16.137,13.423-38.128,4.576-46.655-8.517c-4.531-6.959-7.379-14.531-7.78-22.804c-0.199-4.116-2.188-5.586-5.798-5.767
			c-1.657-0.083-3.38-0.19-4.98,0.151c-23.002,4.901-44.448-0.07-65.129-10.09c-6.142-2.976-12.038-6.371-17.714-10.152
			c-1.967-1.31-3.828-2.942-5.386,0.566c-0.319,0.717-1.556,1.183-2.463,1.46c-18.002,5.5-33.115,15.924-47.567,27.567
			c-1.78,1.434-3.162,5.618-6.747,2.437c-3.107-2.757-4.382-8.777-2.569-11.898c0.495-0.852,1.153-1.649,1.874-2.324
			c11.635-10.885,24.063-20.456,39.986-24.326c3.29-0.8,6.124-0.854,8.504,2.091c0.896,1.109,2.31,1.891,3.626,2.544
			c1.617,0.804,3.247,0.559,4.564-0.812c1.614-1.68-0.175-2.726-0.866-3.843c-0.868-1.401-1.854-2.848-3.118-3.866
			c-13.722-11.053-20.591-26.647-27.714-41.999c-9.196-19.819-13.915-40.747-14.442-62.603c-0.048-2.002-0.595-3.959,2.985-2.876
			c25.806,7.805,46.619-0.596,63.503-20.414c8.614-10.111,13.894-22.174,18.513-34.513c0.175-0.466,0.449-0.929,0.486-1.408
			c0.205-2.651,2.024-6.239-1.76-7.283c-4.023-1.111-4.076,2.947-4.881,5.443c-7.305,22.649-19.085,41.831-41.83,51.805
			c-10.536,4.62-21.609,4.794-32.473,0.239c-3.405-1.428-4.842-3.547-4.793-7.609c0.197-16.361,2.116-32.438,6.262-48.269
			c1.332-5.086,3.555-9.61,7.099-13.501c3.396-3.727,5.21-8.041,4.818-13.186c-0.087-1.141-0.104-2.417,0.307-3.446
			c8.928-22.357,17.45-44.937,32.207-64.359c3.009-3.96,6.629-7.451,9.845-11.262c1.796-2.128,3.016-1.962,5.192-0.155
			c17.369,14.429,35.938,26.904,57.809,33.563c13.608,4.143,27.532,6.417,41.782,4.906c3.424-0.363,3.878,1.358,4.576,3.647
			c6.2,20.36,5.726,40.531-1.323,60.639c-1.97,5.618-3.223,11.491-4.72,17.269c-0.62,2.394-1.447,3.751-4.438,4.18
			c-13.098,1.879-24.17,8.833-35.509,15.025c-1,0.546-2.851,0.977-2.17,2.737c0.573,1.483,1.957,2.098,3.651,2.073
			c4.258-0.063,7.532-2.46,10.838-4.614c6.323-4.119,13.046-6.964,20.473-8.608c13.857-3.066,24.409,1.806,32.832,12.525
			c2.785,3.544,5.005,6.216,9.967,2.08c4.253-3.546,15.593-1.086,19.524,3.088c1.564,1.661,2.305,3.634,2.363,5.876
			c0.122,4.749-0.937,5.441-5.089,3.229c-3.806-2.027-7.507-4.425-12.047-4.11c-1.139,0.079-2.941-0.229-3.31,1.534
			c-0.383,1.828,1.01,2.683,2.41,3.319c1.05,0.477,2.165,0.826,3.274,1.158C374.213,255.165,375.796,257.688,374.492,267.822z"/>
		<path class="st9" d="M314.762,125.16c-16.459-0.184-29.619-4.582-42.627-9.715c-17.94-7.079-32.79-18.677-46.751-31.619
			c-1.569-1.454-2.581-2.526-0.946-4.923c17.67-25.905,55.48-34.018,81.807-17.084c12.849,8.264,19.63,20.823,22.667,35.514
			c1.379,6.672,1.841,13.466,1.903,20.278c0.031,3.393-1.337,5.468-4.975,6.154C321.413,124.6,317.032,125.437,314.762,125.16z"/>
		<path class="st10" d="M401.915,464.486c0.341,4.046-0.235,8-1.112,11.884c-2.245,9.94-10.333,13.223-18.857,7.799
			c-8.007-5.095-11.167-13.316-13.866-21.73c-3.076-9.589-3.169-19.057,0.772-28.663c2.978-7.259,0.764-13.684-5.517-18.458
			c-2.04-1.55-2.329-2.374-0.322-3.977c3.736-2.983,6.315-7.34,10.885-9.329c3.552-1.546,6.934-2.276,9.461,1.917
			C394.598,422.584,401.146,442.655,401.915,464.486z"/>
		<path class="st10" d="M139.124,385.19c-0.191,4.14-0.637,8.3-0.783,12.391c-0.228,6.383,2.248,12.562,6.596,17.201
			c2.102,2.242,1.826,3.299,0.587,5.23c-4.035,6.296-7.965,12.661-12.107,18.885c-2.958,4.445-5.073,4.633-8.513,0.428
			c-8.774-10.726-14.575-22.871-16.962-36.62c-2.116-12.187-1.025-23.876,5.424-34.596c2.532-4.209,5.524-8.654,11.469-8.301
			c6.502,0.386,9.652,5.199,12.385,10.214C139.811,374.776,139,380.067,139.124,385.19z"/>
		<path class="st0" d="M166.434,48.054c7.527-0.107,13.782,3.217,19.578,7.528c8.877,6.603,15.798,15.232,23.507,23.045
			c7.417,7.516,7.451,7.482,0.019,15.19c-1.04,1.079-2.489,1.983-3.046,3.271c-2.583,5.974-6.71,4.634-11.266,2.868
			c-12.161-4.715-23.733-10.382-33.03-19.819c-5.118-5.195-9.101-11.008-9.147-18.717C152.998,52.351,157.295,48.059,166.434,48.054
			z"/>
		<path class="st11" d="M110.695,358.593c-5.037,7.689-8.381,15.778-9.732,24.844c-2.217,14.871,1.138,28.658,7.224,42.014
			c3.408,7.48,7.929,14.243,14.052,19.78c1.943,1.757,2.542,3.446,1.201,5.622c-1.339,2.172-3.452,2.574-5.678,1.704
			c-4.286-1.675-7.716-4.525-10.402-8.244c-8.637-11.96-12.277-25.665-13.147-40.084c-0.558-9.247-0.81-18.611,1.87-27.713
			C98.439,368.515,102.191,361.67,110.695,358.593z"/>
		<path class="st12" d="M130.36,238.746c5.955,5.149,11.711,9.912,19.634,10.542c2.014,0.16,1.999,1.817,1.993,3.385
			c-0.02,4.817-0.127,9.641,0.08,14.45c0.124,2.876-1.041,3.46-3.53,2.869c-8.354-1.984-15.992-5.416-22.424-11.205
			c-3.394-3.055-2.555-6.712-0.551-9.93C127.483,245.771,129.432,242.768,130.36,238.746z"/>
		<path class="st12" d="M157.117,188.115c-7.15-0.043-13.942-6.317-13.973-12.907c-0.032-6.805,7.395-13.103,15.506-13.149
			c6.793-0.038,11.432,4.799,11.283,11.765C169.756,182.02,164.252,188.158,157.117,188.115z"/>
		<path class="st13" d="M403.11,487.352c9.595-17.006,5.835-34.2,1.44-51.274c-2.771-10.765-7.216-20.954-12.437-30.784
			c-0.809-1.523-1.448-3.135-1.755-4.955c5.949,3.403,9.931,8.462,13.034,14.312c8.767,16.533,10.209,34.42,9.741,52.665
			c-0.136,5.305-0.326,10.549-1.994,15.704C409.857,486.98,408.029,489.182,403.11,487.352z"/>
		<path class="st14" d="M137.237,220.156c0.358,5.035-3.353,7.6-7.076,10.195c-1.564,1.091-2.407,0.113-3.319-0.913
			c-1.872-2.106-3.535-4.467-5.682-6.242c-3.31-2.736-3.498-5.747-1.678-9.227c1.9-3.633,5.05-5.172,9.028-4.837
			C133.941,209.59,137.281,213.796,137.237,220.156z"/>
		<path class="st15" d="M101.842,240.12c8.409,0.008,14.43,4.228,15.669,10.153c0.436,2.087,0.332,4.25-1.074,5.557
			c-1.193,1.109-3.07,0.064-4.597-0.604c-4.539-1.984-8.996-4.187-14.258-3.423c-2.341,0.34-3.358-1.666-3.26-3.503
			c0.143-2.684,0.178-5.803,3.142-7.199C99.058,240.35,100.981,240.298,101.842,240.12z"/>
		<path class="st16" d="M106.889,271.062c-5.383-0.228-9.405-1.038-13.092-3.053c-1.77-0.968-3.523-2.31-3.339-4.535
			c0.186-2.261,1.626-3.771,3.883-4.663c4.909-1.942,15.576-0.042,19.223,3.612c2.505,2.51,2.071,5.83-1.116,7.328
			C110.345,270.738,108.052,271.201,106.889,271.062z"/>
		<path class="st17" d="M108.324,224.684c7.974,0.024,15.213,6.852,14.665,13.779c-0.095,1.208-0.235,2.509-1.21,3.131
			c-1.318,0.842-1.981-0.704-2.811-1.339c-4.61-3.528-9.914-5.12-15.577-5.814c-1.83-0.224-4.102,0.405-4.364-2.725
			c-0.207-2.471,0.554-4.048,2.658-5.311C103.771,225.153,105.999,224.818,108.324,224.684z"/>
		<path class="st18" d="M328.673,247.134c2.374,1.808,4.499,2.291,4.373,4.728c-0.021,0.409-1.155,1.211-1.391,1.089
			C329.68,251.93,329.636,249.928,328.673,247.134z"/>
		<path class="st1" d="M193.87,152.714c0.41-7.335,2.274-14.324,7.117-20.175c2.255-2.725,5.05-5.113,9.026-3.73
			c4.086,1.421,6.042,4.729,6.081,8.842c0.088,9.207-4.163,16.548-10.644,22.721c-2.498,2.379-5.361,2.041-8.338,0.672
			C193.305,159.293,194.295,155.847,193.87,152.714z"/>
	</g>
</g>
</svg>
