<?xml version="1.0" encoding="utf-8"?>
<!-- Generator: Adobe Illustrator 25.0.0, SVG Export Plug-In . SVG Version: 6.00 Build 0)  -->
<svg version="1.1" id="Layer_1" xmlns="http://www.w3.org/2000/svg" xmlns:xlink="http://www.w3.org/1999/xlink" x="0px" y="0px"
	 viewBox="0 0 404.7 120.1" style="enable-background:new 0 0 404.7 120.1;" xml:space="preserve">
<style type="text/css">
	.st0{fill:#1D1D1B;}
</style>
<g>
	<g>
		<g>
			<g>
				<path class="st0" d="M43,0h13.6l10.8,28.5L78.9,0h13.8l8.1,53.4H86.9L83,22.6h-0.1L70.1,53.4h-5.5L52.3,22.6h-0.1l-4.5,30.7
					H33.9L43,0z"/>
				<path class="st0" d="M151,53.4h-17.3l-13.1-20.5h-0.1v20.5h-13.9V0h20.7c10.5,0,18.5,5,18.5,16.4c0,7.4-4.1,13.7-11.7,15.1
					L151,53.4z M120.5,23.9h1.3c4.5,0,9.6-0.9,9.6-6.7c0-5.8-5.1-6.6-9.6-6.6h-1.3V23.9z"/>
				<path class="st0" d="M170.7,46.5c0,4.5-3.7,8.3-8.3,8.3c-4.6,0-8.3-3.8-8.3-8.3c0-4.6,3.7-8.3,8.3-8.3
					C167,38.2,170.7,41.9,170.7,46.5z"/>
				<path class="st0" d="M209.2,0h13.7l10.8,28.5L245.2,0h13.8l8.1,53.4h-13.9l-3.9-30.7h-0.1l-12.8,30.7h-5.5l-12.3-30.7h-0.1
					l-4.5,30.7h-13.8L209.2,0z"/>
				<path class="st0" d="M286.7,11.7v8.9h15.6v11.7h-15.6v9.2h16.5v11.7h-30.4V0h30.4v11.7H286.7z"/>
				<path class="st0" d="M311.8,0h13.9l25.4,32.6h0.2V0h13.9v53.4h-13.9l-25.4-32.7h-0.1v32.7h-13.9V0z"/>
				<path class="st0" d="M13.9,106.9h16.6v11.8H0V65.3h13.9V106.9z"/>
				<path class="st0" d="M48.9,118.6H35V65.3h13.9V118.6z"/>
				<path class="st0" d="M79.2,118.6H65.3V77H53.8V65.3h36.8V77H79.2V118.6z"/>
				<path class="st0" d="M116.9,118.6H103V77H91.6V65.3h36.8V77h-11.5V118.6z"/>
				<path class="st0" d="M147.3,106.9h16.6v11.8h-30.5V65.3h13.9V106.9z"/>
				<path class="st0" d="M182.3,77v8.9h15.6v11.7h-15.6v9.2h16.5v11.8h-30.4V65.3h30.4V77H182.3z"/>
				<path class="st0" d="M237.5,65.3h13.7l10.8,28.5l11.5-28.5h13.8l8.1,53.4h-13.9l-3.9-30.7h-0.1l-12.8,30.7H259l-12.2-30.7h-0.1
					l-4.5,30.7h-13.8L237.5,65.3z"/>
				<path class="st0" d="M315,118.6h-13.9V65.3H315V118.6z"/>
				<path class="st0" d="M353.4,79c-2.6-2.1-5.8-3.5-9.2-3.5c-2.6,0-6,1.5-6,4.4c0,3.1,3.8,4.3,6.2,5.1l3.5,1.1
					c7.4,2.2,13.2,5.9,13.2,14.6c0,5.3-1.3,10.8-5.5,14.4c-4.2,3.5-9.8,5-15.2,5c-6.7,0-13.3-2.3-18.8-6.1l5.9-11.2
					c3.5,3,7.6,5.5,12.3,5.5c3.3,0,6.7-1.6,6.7-5.4c0-3.9-5.4-5.2-8.4-6.1c-8.7-2.5-14.4-4.7-14.4-15.1c0-10.8,7.7-17.9,18.4-17.9
					c5.4,0,12,1.7,16.7,4.4L353.4,79z"/>
				<path class="st0" d="M397,79c-2.5-2.1-5.8-3.5-9.2-3.5c-2.5,0-5.9,1.5-5.9,4.4c0,3.1,3.7,4.3,6.1,5.1l3.6,1.1
					c7.4,2.2,13.2,5.9,13.2,14.6c0,5.3-1.3,10.8-5.5,14.4c-4.2,3.5-9.8,5-15.1,5c-6.7,0-13.3-2.3-18.8-6.1l6-11.2
					c3.5,3,7.6,5.5,12.3,5.5c3.3,0,6.7-1.6,6.7-5.4c0-3.9-5.5-5.2-8.4-6.1c-8.7-2.5-14.4-4.7-14.4-15.1c0-10.8,7.7-17.9,18.4-17.9
					c5.4,0,12,1.7,16.7,4.4L397,79z"/>
			</g>
		</g>
	</g>
</g>
</svg>
