<?xml version="1.0" encoding="utf-8"?>
<!-- Generator: Adobe Illustrator 25.0.1, SVG Export Plug-In . SVG Version: 6.00 Build 0)  -->
<!DOCTYPE svg PUBLIC "-//W3C//DTD SVG 1.1//EN" "http://www.w3.org/Graphics/SVG/1.1/DTD/svg11.dtd" [
	<!ENTITY ns_extend "http://ns.adobe.com/Extensibility/1.0/">
	<!ENTITY ns_ai "http://ns.adobe.com/AdobeIllustrator/10.0/">
	<!ENTITY ns_graphs "http://ns.adobe.com/Graphs/1.0/">
	<!ENTITY ns_vars "http://ns.adobe.com/Variables/1.0/">
	<!ENTITY ns_imrep "http://ns.adobe.com/ImageReplacement/1.0/">
	<!ENTITY ns_sfw "http://ns.adobe.com/SaveForWeb/1.0/">
	<!ENTITY ns_custom "http://ns.adobe.com/GenericCustomNamespace/1.0/">
	<!ENTITY ns_adobe_xpath "http://ns.adobe.com/XPath/1.0/">
]>
<svg version="1.1" id="Layer_1" xmlns:x="&ns_extend;" xmlns:i="&ns_ai;" xmlns:graph="&ns_graphs;"
	 xmlns="http://www.w3.org/2000/svg" xmlns:xlink="http://www.w3.org/1999/xlink" x="0px" y="0px" width="512px" height="512px"
	 viewBox="0 0 512 512" style="enable-background:new 0 0 512 512;" xml:space="preserve">
<style type="text/css">
	.st0{fill:#FEFEFE;}
	.st1{fill:#231F21;}
	.st2{fill:#017DC2;}
	.st3{fill:#7AC041;}
	.st4{fill:#017CC2;}
	.st5{fill:#F58E1E;}
	.st6{fill:#F48E1E;}
	.st7{fill:#F38E1E;}
	.st8{fill:#F48E1F;}
	.st9{fill:#F08D20;}
	.st10{fill:#F38E1F;}
	.st11{fill:#F28E1E;}
	.st12{fill:#F28D1F;}
	.st13{fill:#EB8B23;}
	.st14{fill:#ED8B21;}
	.st15{fill:#E98A23;}
	.st16{fill:#ED8B22;}
	.st17{fill:#E98B22;}
	.st18{fill:#EC8C23;}
	.st19{fill:#DF8927;}
	.st20{fill:#E58826;}
	.st21{fill:#E08829;}
	.st22{fill:#DB882C;}
	.st23{fill:#CA8230;}
	.st24{fill:#D98829;}
	.st25{fill:#B07C40;}
	.st26{fill:#D28429;}
	.st27{fill:#AA7038;}
	.st28{fill:#241F20;}
	.st29{fill:#231F20;}
	.st30{fill:#252121;}
	.st31{fill:#232220;}
	.st32{fill:#24221F;}
</style>
<metadata>
	<sfw  xmlns="&ns_sfw;">
		<slices></slices>
		<sliceSourceBounds  bottomLeftOrigin="true" height="512" width="512" x="0" y="0"></sliceSourceBounds>
	</sfw>
</metadata>
<g id="s1z3i0_1_">
	<g>
		<path class="st0" d="M0.096,256C0.096,172.031,0.123,88.062,0,4.093C-0.005,0.67,0.672-0.002,4.095,0
			c167.937,0.108,335.875,0.108,503.812,0c3.422-0.002,4.095,0.671,4.093,4.093c-0.108,167.938-0.108,335.876,0,503.814
			c0.002,3.422-0.671,4.095-4.093,4.093c-167.937-0.108-335.875-0.108-503.812,0c-3.422,0.002-4.099-0.67-4.094-4.093
			C0.123,423.938,0.096,339.969,0.096,256z"/>
		<path class="st1" d="M408.105,190.965c4.517,0.128,8.687-0.272,12.56,1.812c4.925,2.649,7.932,6.546,8.233,12.173
			c0.282,5.276-2.481,8.86-7.121,10.952c-1.878,0.847-2.245,1.543-0.921,3.195c0.704,0.878,1.138,2.023,1.504,3.112
			c3.195,9.496-2.274,15.921-12.113,14.273c-0.97-0.162-1.945-0.296-3.12-0.474c-0.069,1.285-0.196,2.427-0.182,3.568
			c0.138,11.511-0.844,11.523-12.186,14.147c-7.368,1.705-12.797-2.021-15.531-9.934c-1.245-3.603-2.295-7.317-2.407-11.166
			c-0.116-3.988-2.735-3.603-5.491-3.629c-3.207-0.03-3.677,1.433-3.653,4.32c0.153,18.717-1.83,37.41-5.931,55.495
			c-6.03,26.587-18.933,49.569-42.871,64.731c-4.218,2.671-8.665,4.949-13.722,5.634c-2.264,0.307-3.196,1.311-3.49,3.803
			c-1.439,12.186,0.201,24.284,0.694,36.412c0.216,5.312,0.688,10.613,1.068,16.288c10.348-2.829,20.723-3.812,31.231-2.742
			c9.039,0.92,17.67,3.18,25.118,8.689c9.987,7.386,12.471,20.597,5.77,31.057c-1.187,1.852-2.214,2.878,0.454,4.437
			c2.869,1.676,3.165,4.878,3.163,7.965c-0.004,6.386-1.595,12.572-3.245,18.608c-1.027,3.757-5.684,5.335-8.993,5.988
			c-17.38,3.428-34.882,5.687-52.734-1.295c2.247,5.864-2.013,6.935-5.562,8.292c-6.634,2.537-13.408,2.536-19.985-0.09
			c-5.117-2.043-9.637-1.939-14.732,0.662c-7.219,3.685-15.121,3.52-22.882,1.382c-2.445-0.673-5.149-2.042-5.54-4.582
			c-0.713-4.636-2.901-3.343-5.342-1.907c-16.118,9.479-33.138,7.803-50.321,4.108c-6.469-1.391-10.089-5.34-10.71-11.999
			c-0.342-3.667-1.387-7.057-3.313-10.309c-1.802-3.043-0.143-6.222,1.335-8.892c0.869-1.57,1.316-2.246,0.239-4.025
			c-8.007-13.23-4.846-30.196,7.827-39.014c16.64-11.579,35.192-15.272,55.046-10.837c3.382,0.755,4.394,0.364,4.54-2.953
			c0.563-12.826,0.706-25.632-0.924-38.406c-0.336-2.633-1.615-4.156-4.179-4.927c-43.575-13.105-65.073-45.121-74.595-87.31
			c-3.126-13.851-4.443-27.941-4.443-42.113c0-4.233-1.415-6.525-5.428-7.396c-0.64-0.139-1.228-0.507-1.858-0.711
			c-3.466-1.126-7.2-3.588-10.337-2.982c-3.422,0.661-2.447,5.816-3.965,8.818c-4.262,8.426-11.202,13.011-18.436,11.575
			c-7.624-1.513-12.589-9.929-11.219-19.127c0.268-1.8,0.783-3.563,1.251-5.646c-2.774-0.282-5.558-0.432-8.296-0.87
			c-6.274-1.003-8.865-5.878-6.357-11.743c0.065-0.153,0.098-0.32,0.169-0.47c1.859-3.887,6.475-5.925,7.987-9.171
			c1.397-2.999-4.754-5.719-5.092-10.102c-0.376-4.875,2.066-8.495,7.402-9.558c6.402-1.275,12.546-0.28,18.479,2.823
			c0-2.26-0.087-4.331,0.017-6.392c0.265-5.248,3.549-9.647,7.707-10.46c5.394-1.054,11.371,2.115,13.411,7.171
			c1.906,4.724,2.446,9.734,2.086,14.711c-0.287,3.963,1.124,5.444,4.919,6.168c8.861,1.69,8.837,1.876,10.191-7.197
			c4.321-28.946,10.607-57.465,18.565-85.622C174.384,90.3,174.5,90,166.091,86.5c-13.241-5.513-20.743-15.674-24.311-29.035
			c-3.223-12.068-1.733-23.375,6.557-33.315c2.658-3.186,5.102-6.571,7.402-10.026c0.945-1.419,1.688-2.434,3.501-1.782
			c1.699,0.611,2.127,1.876,1.942,3.555c-0.128,1.154-0.11,2.328-0.106,3.493c0.061,16.543,9.818,24.656,25.894,21.223
			c18.192-3.884,36.23-8.484,54.702-11.004c23.072-3.147,46.181-4.825,68.719,2.554c20.063,6.569,35.718,19.444,48.004,36.541
			c6.012,8.366,6.144,18.471,8.486,27.896c3.054,12.293,2.497,24.825,0.818,37.233c-1.884,13.925-2.207,27.855-1.64,41.855
			c0.188,4.653,0.374,9.357-0.098,13.971c-0.408,3.996,0.844,5.012,4.535,4.183c3.242-0.728,6.864-0.548,9.732-1.96
			c3.585-1.764,0.625-5.971,1.942-8.86c0.959-2.103,1.426-4.445,2.495-6.48c3.748-7.134,11.062-10.36,17.429-7.873
			c6.232,2.434,9.801,10.735,7.728,18.12C409.467,188.055,408.825,189.239,408.105,190.965z"/>
		<path class="st2" d="M267.778,380.543c-0.008-4.483,0.601-8.996-0.588-13.425c-0.47-1.75-1.019-3.301-3.152-3.136
			c-2.432,0.188-2.321,2.24-2.124,3.792c1.718,13.57,0.449,27.265,1.754,40.837c0.821,8.538-1.472,11.125-10.057,10.234
			c-4.007-0.416-7.674-2.04-11.29-3.756c-3.403-1.615-2.083-4.437-1.852-6.965c1.215-13.307,1.112-26.595-0.844-39.822
			c-0.638-4.318-2.078-7.2-7.449-8.861c-35.609-11.016-57.448-35.684-68.008-70.935c-4.514-15.07-6.655-30.548-6.902-46.217
			c-0.7-44.284,5.063-87.739,17.447-130.292c1.485-5.102,2.951-10.222,4.09-15.407c0.615-2.8,1.5-3.477,4.374-2.564
			c25.507,8.103,51.678,8.321,78.027,6.342c15.253-1.145,30.709-1.03,45.71-3.603c10.875-1.865,16.648,1.503,22.47,10.091
			c7.789,11.488,19.597,19.334,29.848,28.557c1.827,1.644,2.812,3.229,2.434,5.556c-1.402,8.608-0.655,17.287-0.913,25.932
			c-0.244,8.149-0.489,16.299-0.646,24.45c-0.107,5.519,2.3,7.782,7.761,7.748c5.701-0.035,11.179-1.225,16.686-2.573
			c2.974-0.728,3.611-1.749,2.94-4.77c-1.042-4.696,0.099-9.255,2.631-13.383c2.89-4.711,7.404-6.343,11.313-4.143
			c3.811,2.145,5.061,7.721,2.401,12.203c-1.689,2.846-3.895,5.384-5.873,8.058c-0.918,1.241-1.793,2.511-0.731,4.073
			c1.139,1.675,2.794,1.024,4.065,0.477c4.895-2.105,9.941-2.714,15.148-1.843c5.399,0.903,8.102,4.285,7.235,8.803
			c-0.847,4.416-4.879,6.959-9.948,5.827c-3.552-0.793-6.967-2.189-10.453-3.285c-1.671-0.525-3.754-0.769-4.459,0.951
			c-0.865,2.111,1.13,3.247,2.816,3.99c1.662,0.732,3.431,1.23,5.174,1.762c2.558,0.781,5.028,1.697,7.08,3.51
			c3.831,3.385,4.968,7.609,2.65,11.058c-2.691,4.004-6.194,1.686-9.334,0.75c-2.914-0.868-5.094-3.073-7.506-4.849
			c-1.529-1.126-3.358-2.934-5.192-0.678c-1.649,2.03,0.364,3.559,1.598,4.599c3.751,3.162,5.092,7.061,5.217,11.876
			c0.118,4.523-2.28,6.193-6.055,7.108c-3.727,0.904-6.825,0.672-8.859-3.282c-2.793-5.427-4.64-11.128-4.509-17.195
			c0.103-4.783-2.197-5.722-6.164-5.145c-0.329,0.048-0.666,0.042-0.995,0.087c-13.357,1.839-13.437,1.839-13.587,15.394
			c-0.197,17.844-1.984,35.489-6.342,52.821c-5.602,22.278-16.674,41.114-35.075,55.283c-4.956,3.816-10.395,6.424-16.677,7.383
			c-6.185,0.944-7.263,2.3-7.219,8.47c0.122,17.137-0.775,34.311,1.784,51.365c0.412,2.743-0.574,4.741-3.038,6.254
			c-6.136,3.767-17.16,3.649-22.954-0.306c-1.659-1.132-1.765-2.749-1.863-4.379C269.078,403.764,268.437,392.153,267.778,380.543z"
			/>
		<path class="st3" d="M155.597,22.61c1.391,2.186,1.132,4.746,1.76,7.072c3.731,13.833,14.337,19.507,30.549,15.988
			c16.051-3.484,31.896-8.023,48.229-10.063c22.822-2.851,45.745-4.84,68.445,0.564c24.445,5.819,54.513,26.729,58.561,62.111
			c1.108,9.688,0.852,19.217-0.227,28.816c-0.276,2.457-1.069,2.947-3.029,1.162c-12.283-11.191-25.628-21.372-34.474-35.835
			c-1.422-2.324-3.189-2.576-5.435-2.38c-13.242,1.155-26.477,2.388-39.727,3.44c-28.525,2.265-57.136,4.828-85.409-1.638
			c-14.458-3.306-28.533-8.198-39.15-19.562C141.653,57.261,141.583,35.843,155.597,22.61z"/>
		<path class="st4" d="M151.92,211.409c0,2.997-0.089,5.998,0.024,8.991c0.126,3.368-1.248,4.201-4.237,2.852
			c-5.468-2.468-11.133-4.393-16.938-5.882c-5.056-1.298-5.198-0.882-5.014,4.317c0.244,6.874-2.322,12.761-8.047,16.804
			c-4.871,3.439-11.134,0.897-12.464-4.982c-1.638-7.237,0.288-13.497,5.788-18.566c1.101-1.014,2.354-1.873,3.387-2.947
			c0.949-0.986,3.004-1.803,1.863-3.53c-1.315-1.992-3.227-1.115-4.838-0.068c-3.92,2.548-7.941,4.933-12.471,6.178
			c-2.603,0.716-5.789,1.022-7.424-1.333c-1.791-2.579-0.23-5.397,1.556-7.739c3.779-4.953,9.127-5.469,14.799-5.467
			c2.284,0.001,6.128,1.313,6.474-1.682c0.369-3.186-3.442-3.183-6.028-3.51c-2.468-0.312-4.954-0.53-7.396-0.982
			c-3.333-0.617-5.815-2.037-6.187-6.005c-0.394-4.201,2.883-4.54,5.358-5.262c4.637-1.353,8.858,0.538,12.74,2.877
			c2.838,1.71,5.443,3.817,8.091,5.827c1.348,1.023,2.838,1.404,4.11,0.378c1.365-1.101,0.166-2.452-0.335-3.591
			c-1.71-3.893-5.114-7.004-4.973-11.767c0.099-3.349,0.174-6.5,4.306-7.274c4.169-0.781,6.223,1.906,7.39,5.208
			c1.863,5.272,1.604,10.838,1.423,16.319c-0.114,3.446,0.333,5.956,4.648,5.655c0.942-0.066,1.917,0.489,2.89,0.699
			C152.03,199.432,152.031,199.429,151.92,211.409z"/>
		<path class="st5" d="M252.319,424.01c-6.903,6.566-12.395,13.359-16.601,21.12c-3.835,7.075-6.849,14.454-6.83,22.653
			c0.007,3.006-1.643,3.035-3.792,3.17c-2.748,0.173-2.39-1.707-2.36-3.307c0.176-9.334-0.306-18.603-2.48-27.727
			c-1.358-5.7-3.286-11.191-6.631-16.026c-1.45-2.096-1.356-2.924,1.157-3.742c6.713-2.186,8.806-0.562,8.577,6.801
			c-0.101,3.26,1.631,5.356,4.754,6.101c3.255,0.776,6.386,0.651,8.223-2.773c1.726-3.216,0.077-6.093-4.03-7.37
			c-2.753-0.855-7.567-1.16-6.7-4.338c0.843-3.09,5.386-1.444,8.314-0.706C240.029,419.405,245.295,423.293,252.319,424.01z"/>
		<path class="st6" d="M171.426,455.029c1.204,0,2.409,0.271,3.43-0.048c3.812-1.192,5.613-0.422,7.422,3.777
			c2.636,6.118,15.038,5.457,18.154-0.981c2.255-4.658,4.345-9.754,3.784-15.292c-0.618-6.099-4.753-8.439-10.187-5.59
			c-3.951,2.071-7.277,4.937-7.794,9.695c-0.296,2.721,0.559,5.282,3.35,6.678c2.288,1.144,4.296,0.492,5.858-1.217
			c1.561-1.708,2.016-3.792,0.804-5.99c-0.57-1.033-1.205-2.348-2.531-1.903c-1.16,0.389-0.652,1.652-0.359,2.583
			c0.511,1.626,1.175,3.782-1.251,3.833c-1.876,0.04-2.008-2.274-1.983-3.929c0.044-2.839,1.234-5.163,3.55-6.811
			c1.371-0.976,2.977-1.768,4.652-1.156c1.99,0.727,1.71,2.686,1.665,4.3c-0.151,5.455,0.3,11.197-4.979,14.887
			c-5.026,3.513-8.786,2.177-10.426-3.803c-1.422-5.184-0.639-10.268,1.915-14.965c2.69-4.947,6.754-8.535,11.643-11.324
			c2.405-1.372,3.527-0.779,4.435,1.638c4.76,12.667,6.53,25.669,4.897,39.15c-0.366,3.02-1.507,3.893-4.474,3.408
			c-10.426-1.704-20.643-3.846-28.416-11.82C173.262,458.792,171.471,457.597,171.426,455.029z"/>
		<path class="st6" d="M311.311,460.646c0.072-12.556-4.865-22.825-14.106-30.776c-3.922-3.375-1.731-4.415,1.106-5.525
			c3.435-1.344,7.126-1.562,10.8-1.27c0.963,0.077,2.63-0.693,2.602,1.269c-0.018,1.28-0.97,2.177-2.19,2.384
			c-2.249,0.382-5.064,0.032-4.81,3.531c0.233,3.212,2.605,4.832,5.28,6.045c1.755,0.796,3.53,1.209,4.993-0.507
			c1.297-1.521,0.696-3.055-0.08-4.626c-1.475-2.987,0.492-7.536,3.829-8.062c2.565-0.404,5.284,0.018,7.918,0.253
			c1.923,0.172,1.925,1.39,1.178,2.837c-6.316,12.236-8.271,25.473-8.746,39.002c-0.143,4.073-2.961,2.571-4.964,2.836
			c-2.277,0.302-3.461-0.513-3.05-3.056C311.308,463.515,311.245,462,311.311,460.646z"/>
		<path class="st7" d="M348.914,459.358c-5.003,4.091-10.249,5.074-15.312,6.461c-1.991,0.545-2.582-0.545-2.664-2.411
			c-0.545-12.315,3.47-23.524,8.276-34.546c0.335-0.769,0.905-1.22,1.883-1.341c9.315-1.148,19.097,9.988,16.692,19.058
			c-1.596,6.018-7.351,9.945-13.502,9.53c-2.918-0.197-4.161-1.641-4.44-4.302c-0.36-3.43,0.363-6.62,2.296-9.484
			c1.429-2.116,3.021-4.143,6.023-3.441c2.048,0.479,3.249,2.276,3.198,4.023c-0.085,2.903-1.742,5.05-4.713,5.907
			c-0.902-1.504,0.131-2.115,0.652-2.885c0.757-1.119,2.748-2.276,0.538-3.547c-1.666-0.958-3.33,0.045-4.19,1.628
			c-1.395,2.568-1.426,5.413,0.904,7.279c2.515,2.014,5.363,1.381,7.628-0.873c3.209-3.193,2.78-10.649-0.692-13.604
			c-3.772-3.21-8.638-2.179-11.936,2.538c-2.735,3.911-3.375,8.3-2.524,12.858C337.927,457.018,340.917,458.828,348.914,459.358z"/>
		<path class="st8" d="M217.134,482.322c-14.043,1.554-26.811-3.511-39.657-7.886c-2.263-0.771-6.462-2.236-4.765-5.523
			c1.744-3.38,4.33,0.438,6.05,1.364c16.374,8.813,33.343,9.847,51.158,5.342c10.113-2.558,20.564-3.831,29.814-9.144
			c0.703-0.404,1.744-1.086,2.115-0.115c0.565,1.478,1.06,3.153-0.532,4.571c-2.525,2.248-5.429,3.821-8.544,5.016
			c-9.069,3.478-18.596,4.841-28.171,5.921C222.127,482.145,219.624,482.177,217.134,482.322z"/>
		<path class="st8" d="M304.995,482.687c15.431-1.249,30.848-2.127,45.74-6.752c2.694-0.837,5.36-1.803,7.956-2.904
			c2.37-1.005,2.786-0.249,2.74,2.09c-0.09,4.654-1.816,7.431-6.641,8.81C338.02,488.725,321.472,488.729,304.995,482.687z"/>
		<path class="st9" d="M312.128,476.856c-11.855-0.259-24.528-1.583-36.699-6.022c-1.868-0.681-3.694-1.498-5.488-2.359
			c-2.051-0.983-3.289-3.415-2.579-4.864c1.07-2.185,3.232-0.37,4.633,0.498c10.872,6.734,23.222,10.128,35.45,10.346
			c18.07,0.322,36.205-2.051,50.891-14.732c1.45-1.252,2.758-1.843,4.282-0.274c1.428,1.47,1.133,3.018,0.065,4.508
			c-2.348,3.276-5.816,4.82-9.476,6.087C340.22,474.539,326.841,476.687,312.128,476.856z"/>
		<path class="st10" d="M227.144,486.78c-6.035,5.026-13.395,6.115-20.749,6.837c-7.811,0.766-15.57-0.138-23.13-2.277
			c-8.61-2.436-9.073-3.166-8.989-13.157C191.188,486.007,208.755,488.658,227.144,486.78z"/>
		<path class="st7" d="M271.228,475.687c8.078,1.718,16.01,3.365,23.922,5.102c4.839,1.062,2.04,5.547,3.394,8.247
			c1.109,2.211-1.605,2.712-3.369,3.133c-7.376,1.757-14.484-0.028-21.598-1.668c-1.779-0.41-2.317-1.773-2.335-3.371
			C271.198,483.337,271.228,479.544,271.228,475.687z"/>
		<path class="st6" d="M265.922,474.399c0,5.703-0.061,9.961,0.031,14.216c0.036,1.675-0.925,2.423-2.195,2.917
			c-5.941,2.307-12.01,3.826-18.45,2.599c-3.375-0.643-6.805-5.42-6.275-8.606c0.326-1.963,1.916-1.446,3.111-1.674
			C250.124,482.329,258.189,481.045,265.922,474.399z"/>
		<path class="st11" d="M212.081,457.773c0.098-10.787-2.634-20.179-5.16-29.618c-0.366-1.366-2.291-3.226,0.085-4.203
			c2.041-0.839,3.24,1,4.222,2.62c4.333,7.147,5.526,15.217,6.511,23.261c0.764,6.239,0.878,12.559,1.247,18.845
			c0.324,5.516-4.075,3.769-6.637,3.845c-3.973,0.118-1.489-2.778-1.286-4.267C211.58,464.479,212.339,460.739,212.081,457.773z"/>
		<path class="st9" d="M289.07,464.669c4.765-2.127,7.006-5.8,6.63-10.633c-0.352-4.524-2.684-8.039-7.448-8.73
			c-2.842-0.413-3.521-1.577-3.367-4.148c0.086-1.448-0.397-2.94-0.685-4.4c-0.494-2.504-1.885-4.24-4.474-4.736
			c-2.778-0.532-4.843,0.646-6.347,2.931c-0.521,0.792-0.982,1.625-1.475,2.448c-1.344-0.493-0.888-1.469-0.936-2.158
			c-0.694-9.831-0.448-10.049,8.678-6.259c11.987,4.978,17.37,14.762,19.286,26.976c0.154,0.981,0.156,1.986,0.22,2.981
			C299.752,468.301,298.713,468.94,289.07,464.669z"/>
		<path class="st12" d="M171.151,443.849c3.354,2.323,5.667,0.693,7.413-2.158c2.12-3.46,2.792-7.566,0.901-10.96
			c-1.721-3.088-0.271-4.136,1.657-5.418c3.564-2.368,6.873-5.311,11.511-5.463c2.364-0.077,4.593,0.65,5.394,2.809
			c0.942,2.537-1.964,2.536-3.26,3.389c-8.118,5.339-14.413,11.817-14.682,22.281c-0.083,3.236-2.913,3.373-4.876,4.088
			c-1.97,0.718-3.478-0.659-4.156-2.613c-0.432-1.244-0.699-2.544-1.041-3.819C169.396,444.743,169.259,443.756,171.151,443.849z"/>
		<path class="st13" d="M251.074,464.08c-2.548,1.654-5.502,2.14-8.343,2.99c-2.901,0.869-4.077,0.15-3.468-2.967
			c3.124-16.001,10.758-28.924,25.513-37.851c0,4.596,0,8.517,0.003,12.438c-7.757-5.002-12.69-2.988-14.342,6.025
			c-0.322,1.755-1.024,3-2.144,4.296c-1.174,1.359-2.27,2.927-2.895,4.594c-2.03,5.414-0.307,8.148,5.6,9.322
			C251.551,463.277,251.577,463.661,251.074,464.08z"/>
		<path class="st14" d="M323.301,458.998c0.2-11.158,3.447-21.556,8.019-31.624c0.806-1.774,1.935-2.828,3.839-2.067
			c2.375,0.948,0.712,2.475,0.194,3.65c-4.932,11.186-8.818,22.608-8.477,35.072c0.033,1.191,0.473,2.972-1.622,2.94
			c-1.884-0.028-1.779-1.76-1.909-2.984C323.17,462.339,323.301,460.662,323.301,458.998z"/>
		<path class="st15" d="M285.496,428.59c2.888-1.027,4.424-0.638,6.018,0.683c10.298,8.531,15.802,19.398,16.232,32.781
			c0.042,1.311-0.197,2.635-0.348,3.948c-0.152,1.32-0.751,2.197-2.259,1.953c-1.368-0.221-1.189-1.336-1.283-2.292
			c-0.39-3.954-0.499-7.961-1.235-11.85C300.638,443.325,295.909,434.486,285.496,428.59z"/>
		<path class="st16" d="M281.219,462.613c-2.923-1.413-5.078-2.454-7.459-3.606c3.287-3.528,6.177-6.701,9.149-9.794
			c1.948-2.026,4.262-1.807,6.282-0.293c3.004,2.252,3.651,5.518,2.727,8.974c-0.67,2.509-2.685,3.812-5.246,3.836
			c-2.232,0.021-1.959-1.874-1.986-3.307c-0.018-0.971,0.085-2.221,1.604-1.024c0.91,0.717,1.981,0.916,2.48-0.263
			c0.761-1.799-0.484-3.159-1.515-4.455c-0.821-1.031-1.737-0.618-2.625-0.013C281.37,454.89,280.798,458.274,281.219,462.613z"/>
		<path class="st9" d="M270.914,455.55c0-3.097-0.014-5.586,0.004-8.073c0.019-2.533-1.377-5.749,3.771-4.924
			c2.054,0.329,3.486-2.247,3.041-4.789c-0.173-0.99-1.688-2.241,0.271-2.787c2.212-0.617,2.331,1.452,2.675,2.76
			C282.226,443.634,278.563,450.552,270.914,455.55z"/>
		<path class="st17" d="M362.268,444.805c-0.998-10.401-6.41-16.592-16.049-19.371c-1.321-0.381-4.669,0.17-3.317-3.382
			c1.318-3.463,3.648-1.557,5.276-0.785c7.407,3.513,13.662,8.143,15.172,17.029C363.729,440.524,363.545,442.487,362.268,444.805z"
			/>
		<path class="st18" d="M264.734,443.599c0,4.834,0,8.888,0,13.891c-4.379-3.14-6.318-7.53-10.199-10.019
			c-1.919-1.231,0.82-7.619,3.293-8.322c0.792-0.225,1.777-0.438,2.024,0.625c0.166,0.718,0.047,1.688-0.333,2.306
			c-0.621,1.008-3.559,0.864-1.751,3.002c1.381,1.633,3.256,1.181,4.872-0.102C263.116,444.601,263.657,444.304,264.734,443.599z"/>
		<path class="st19" d="M250.465,432.966c-2.074,2.974-4.134,5.958-6.224,8.92c-5.084,7.207-8.515,14.984-8.407,24.01
			c0.018,1.485,0.165,3.463-2.026,3.143c-1.87-0.273-0.938-2.136-0.891-3.303C233.38,454.341,240.34,440.747,250.465,432.966z"/>
		<path class="st20" d="M251.074,464.08c-0.025-0.384-0.051-0.768-0.076-1.152c0.795-0.233,1.58-0.514,2.388-0.688
			c2.019-0.435,3.196-1.681,3.513-3.68c0.26-1.642-0.415-2.903-1.869-3.725c-1.855-1.049-3.568-0.54-5.038,0.707
			c-0.538,0.457-0.672,1.39-1.382,2.991c-1.249-4.337-0.222-6.312,2.045-7.495c2.364-1.233,4.341,0.185,5.633,1.904
			C261.845,460.335,261.489,460.561,251.074,464.08z"/>
		<path class="st21" d="M171.151,443.849c-0.929,0.42-1.063,1.263-1.138,2.137c-0.902-3.365,1.505-11.673,3.817-13.432
			c1.479-1.126,2.357-0.798,2.899,0.911c0.898,2.832-1.202,5.486-4.18,5.979C169.816,439.898,171.179,442.221,171.151,443.849z"/>
		<path class="st22" d="M216.306,416.287c-4.988,3.345-5.785,3.343-8.966-0.021C211.236,414.409,212.709,414.412,216.306,416.287z"
			/>
		<path class="st23" d="M320.9,419.326c2.892-2.042,5.257-1.363,7.438-1.357c1.142,0.003,3.334-0.701,3.285,0.997
			c-0.064,2.222-2.323,1.83-3.917,1.621C325.766,420.333,323.851,419.884,320.9,419.326z"/>
		<path class="st24" d="M198.105,417.65c1.007-1.2,2.349-0.796,3.515-0.516c1.437,0.346,2.693,1.154,3.27,2.636
			c0.307,0.789-0.363,1.171-0.881,1.524c-1.807,1.231-2.633-0.385-3.595-1.354C199.669,419.189,198.187,419.183,198.105,417.65z"/>
		<path class="st25" d="M252.472,430.44c1.746-3.898,4.841-5.729,8.958-5.987C258.444,426.449,255.458,428.445,252.472,430.44z"/>
		<path class="st26" d="M340.512,419.594c-0.531,1.246-1.162,2.475-2.52,2.89c-0.856,0.261-1.885-0.349-1.931-1.141
			c-0.09-1.557,1.202-2.231,2.499-2.7C339.501,418.303,340.146,418.662,340.512,419.594z"/>
		<path class="st27" d="M248.098,459.26c2.526,0.082,3.214-2.566,5.267-1.89c0.635,0.209,0.786,1.176,0.345,1.685
			C252.42,460.54,250.88,461.162,248.098,459.26z"/>
		<path class="st28" d="M312.043,211.658c0.671-6.692-1.396-13.811-2.101-21.069c-0.15-1.541-1.241-3.944,1.436-4.614
			c2.666-0.668,3.399,1.351,3.963,3.388c7.571,27.334,0.626,64.989-23.826,83.536c-24.358,18.476-69.723,16.412-89.456-17.532
			c-9.455-16.264-14.458-33.817-13.153-52.825c0.187-2.721-0.464-7.364,3.154-7.008c4.584,0.451,2.657,5.032,2.54,8.211
			c-0.752,20.428,8.072,55.625,32.202,68.505c26.959,14.39,67.676,8.162,81.179-32.433
			C310.948,230.896,312.389,221.761,312.043,211.658z"/>
		<path class="st29" d="M247.926,131.621c0.15-5.569,0.951-9.607,2.818-13.404c1.779-3.617,4.701-4.995,8.605-4.293
			c3.92,0.705,6.208,3.224,6.674,7.038c0.888,7.27-1.404,13.832-5.518,19.68c-2.614,3.716-8.128,3.134-10.309-0.798
			C248.547,136.87,247.737,133.681,247.926,131.621z"/>
		<path class="st29" d="M210.893,128.347c-0.229-4.146,0.443-7.947,3.046-11.3c2.993-3.855,6.179-4.129,9.463-0.632
			c5.581,5.943,3.568,20.124-3.41,24.364c-3.411,2.073-5.818,1.669-7.388-2.309C211.299,135.165,210.66,131.811,210.893,128.347z"/>
		<path class="st30" d="M170.693,69.511c7.666,5.186,15.433,9.865,24.766,11.048c4.108,0.521,8.224,1.061,12.353,1.314
			c20.079,1.226,40.179,2.855,60.288,1.961c12.871-0.572,25.71-2.399,38.319-5.341c1.649-0.385,3.219-0.7,5.229,0.242
			c-3.814,2.899-8.309,2.226-12.278,3.207c-12.26,3.031-24.823,5.016-37.388,4.671c-15.624-0.429-31.27,0.003-46.89-1.182
			c-9.937-0.754-19.83-1.321-29.401-4.375C179.308,79.019,174.507,74.913,170.693,69.511z"/>
		<path class="st31" d="M185.848,60.985c34.894,11.896,70.359,11.156,107.119,4.179c-5.428,5.431-32.325,9.766-54.528,7.624
			C215.627,70.588,207.03,73.078,185.848,60.985z"/>
		<path class="st32" d="M212.015,51.347c24.006,2.521,47.764,0.715,71.475-2.361C259.911,56.185,236.046,56.708,212.015,51.347z"/>
	</g>
</g>
</svg>
