<?xml version="1.0" encoding="utf-8"?>
<!-- Generator: Adobe Illustrator 25.0.1, SVG Export Plug-In . SVG Version: 6.00 Build 0)  -->
<!DOCTYPE svg PUBLIC "-//W3C//DTD SVG 1.1//EN" "http://www.w3.org/Graphics/SVG/1.1/DTD/svg11.dtd" [
	<!ENTITY ns_extend "http://ns.adobe.com/Extensibility/1.0/">
	<!ENTITY ns_ai "http://ns.adobe.com/AdobeIllustrator/10.0/">
	<!ENTITY ns_graphs "http://ns.adobe.com/Graphs/1.0/">
	<!ENTITY ns_vars "http://ns.adobe.com/Variables/1.0/">
	<!ENTITY ns_imrep "http://ns.adobe.com/ImageReplacement/1.0/">
	<!ENTITY ns_sfw "http://ns.adobe.com/SaveForWeb/1.0/">
	<!ENTITY ns_custom "http://ns.adobe.com/GenericCustomNamespace/1.0/">
	<!ENTITY ns_adobe_xpath "http://ns.adobe.com/XPath/1.0/">
]>
<svg version="1.1" id="Layer_1" xmlns:x="&ns_extend;" xmlns:i="&ns_ai;" xmlns:graph="&ns_graphs;"
	 xmlns="http://www.w3.org/2000/svg" xmlns:xlink="http://www.w3.org/1999/xlink" x="0px" y="0px" width="512px" height="512px"
	 viewBox="0 0 512 512" style="enable-background:new 0 0 512 512;" xml:space="preserve">
<style type="text/css">
	.st0{fill:#171615;}
	.st1{fill:#F1B4C2;}
	.st2{fill:#A36A35;}
	.st3{fill:#A46B37;}
	.st4{fill:#A36934;}
	.st5{fill:#155E93;}
	.st6{fill:#A36C3A;}
	.st7{fill:#E8B7C4;}
	.st8{fill:#9C6C3C;}
	.st9{fill:#CECDCC;}
	.st10{fill:#191514;}
	.st11{fill:#1C1716;}
</style>
<metadata>
	<sfw  xmlns="&ns_sfw;">
		<slices></slices>
		<sliceSourceBounds  bottomLeftOrigin="true" height="397.439" width="381.899" x="67.343" y="33.629"></sliceSourceBounds>
	</sfw>
</metadata>
<g id="UWBahF_1_">
	<g>
		<path class="st0" d="M226.371,112.457c46.387,4.293,86.618,21.676,115.765,59.617c28.701,37.361,35.832,80.587,32.9,126.55
			c4.055-10.507,8.238-20.967,12.117-31.539c2.368-6.454,5.708-10.156,13.508-8.937c5.794,0.905,11.845,0.147,17.736,1.223
			c5.659,1.033,7.346,2.96,4.143,8.842c-19.775,36.313-36.786,73.894-50.857,112.805c-1.626,4.496-1.102,6.938,2.673,10.08
			c23.619,19.66,44.531,42.122,65.537,64.46c3.058,3.252,5.262,7.295,7.97,10.889c2.871,3.811,0.87,6.044-2.428,7.805
			c-3.669,1.959-7.704,2.247-11.775,2.284c-5.229,0.048-10.758-0.927-15.619,0.445c-8.466,2.39-13.222-1.613-18.004-7.385
			c-8.941-10.794-18.078-21.428-27.298-31.986c-3.915-4.483-8.675-8.067-13.53-11.537c-3.333-2.382-5.061-1.535-6.113,2.057
			c-2.402,8.198-4.753,16.412-7.209,24.593c-1.159,3.859-2.303,7.744-3.818,11.47c-5.095,12.533-8.78,14.534-21.738,11.524
			c-4.555-1.058-8.92-0.654-13.411,0.004c-3.101,0.454-6.296,0.365-8.431-2.505c-2.098-2.821,0.555-4.907,1.533-7.076
			c5.165-11.459,11.167-22.523,15.838-34.228c1.667-4.178,0.759-5.467-3.526-5.474c-14.261-0.024-28.524-0.06-42.78-0.366
			c-3.703-0.08-4.951,2.134-6.204,4.727c-3.462,7.157-4.427,14.993-6.041,22.646c-1.275,6.048-2.435,12.141-5.498,17.599
			c-3.928,7.001-9.931,9.43-16.744,5.336c-15.458-9.288-31.192-18.722-43.716-31.612c-7.145-7.353-8.244-19.441-10.922-29.434
			c-2.432-9.077,11.258-17.05,22.173-14.308c3.907,0.981,7.663,2.57,11.577,3.51c2.573,0.618,5.815,0.559,7.081-1.952
			c1.211-2.4-1.411-4.266-3.077-5.865c-3.251-3.121-6.916-5.843-9.947-9.155c-15.819-17.287-21.187-37.764-17.706-60.868
			c-3.301-0.628-5.061,1.687-7.15,2.892c-16.968,9.787-34.776,16.897-54.782,14.747c-32.456-3.487-54.673-24.73-59.634-57.565
			c-6.554-43.382,7.144-81.047,34.257-114.484c11.136-13.734,24.126-25.571,38.4-35.974c3.456-2.519,6.383-4.283,0.538-7.657
			c-3.862-2.229-2.161-4.643,1.22-5.989c0.837-0.333,1.878-0.169,2.827-0.205c11.738-0.45,11.722-0.451,13.767-12.205
			c1.319-7.581,3.592-14.783,8.82-20.691c9.59-10.837,22.641-11.521,33.202-1.766c4.107,3.794,7.275,8.324,8.475,13.759
			c1.276,5.783,3.444,6.452,7.741,2.561c1.351-1.224,3.247-1.981,5.021-2.569c2.206-0.731,4.256,0.02,5.796,1.747
			c2.047,2.297,0.213,3.874-1.186,5.482C227.08,109.654,226.032,110.367,226.371,112.457z M331.323,393.425
			c-2.581,1.67-5.47,3.007-7.4,6.245c4.612,0.54,8.282,0.754,9.113-4.457c1.487-1.631,3.264-3.155,2.219-6.409
			C333.706,390.625,332.514,392.025,331.323,393.425z M261.51,305.038c1.271,7.644-1.005,13.823-4.422,19.63
			c-10.321,17.542-31.334,27.758-51.503,24.702c-5.091-0.771-6.096,0.032-4.77,5.106c2.838,10.856,7.843,20.322,15.902,28.154
			c7.604,7.389,16.575,12.674,26.216,16.864c2.997,1.302,4.746,2.258,2.544,6.049c-5.038,8.673-8.068,18.263-10.484,27.908
			c-1.723,6.881-4.354,5.708-8.462,2.415c-4.248-3.406-8.034-7.502-13.15-9.689c-5.646-2.413-11.741-2.819-15.784,2.113
			c-4.169,5.087,0.624,9.339,3.744,12.988c9.137,10.685,21.189,17.32,33.349,23.96c5.559,3.035,7.823,2.112,9.486-3.568
			c3.735-12.752,7.35-25.553,11.603-38.135c6.758-19.995,13.605-25.284,34.762-23.9c15.509,1.014,27.08-4.733,37.379-15.293
			c6.536-6.702,12.079-14.061,16.267-22.39c15.973-31.769,21.525-65.646,20.198-100.894c-2.642-70.165-53-127.807-122.186-139.696
			c-16.083-2.764-32.077-4.177-47.24,4.351c-3.935,2.213-8.639,2.608-13.159,2.777c-15.991,0.601-29.133,7.727-41.104,17.646
			c-19.048,15.783-35.382,34.09-46.986,55.876c-15.908,29.865-20.369,61.661-10.549,94.506
			c5.737,19.189,17.824,33.182,38.076,37.705c23.262,5.194,44.449,0.328,62.13-16.253c12.345-11.577,20.775-25.846,26.614-41.658
			c1.657-4.488,3.128-9.088,7.309-11.912c1.7-1.149,3.936-2.672,5.904-1.376c1.84,1.21,0.573,3.516,0.278,5.311
			c-1.69,10.289-6.797,19.161-11.732,28.107c-6.117,11.087-11.182,22.451-11.988,35.438c-0.335,5.397,1.543,7.623,6.491,8.911
			c16.592,4.32,34.904-4.144,42.257-19.816C251.367,314.865,253.153,307.878,261.51,305.038z M434.687,466.227
			c-8.37-9.729-15.781-18.601-23.471-27.224c-12.508-14.023-25.831-27.221-41.011-38.386c-1.607-1.182-3.431-4.858-6.146-0.772
			c-5.129,7.72-4.842,11.791,1.688,18.463c2.16,2.207,4.419,4.319,6.545,6.558c11.913,12.545,25.655,23.386,35.223,38.125
			c2.194,3.379,5.715,4.976,9.842,4.68C422.684,467.287,428.002,466.79,434.687,466.227z M402.204,266.838
			c-4.46-0.932-6.456,1.525-8.056,5.658c-4.879,12.606-10.085,25.089-15.323,37.553c-10.111,24.057-20.357,48.058-30.449,72.123
			c-0.68,1.622-2.841,5.059,0.617,4.892c3.608-0.174,8.757,5.52,10.83-0.735c12.951-39.073,31.284-75.863,47.624-113.494
			C410.12,266.681,406.925,266.452,402.204,266.838z M321.287,467.523c6.063,1.82,9.602-1.368,11.726-8.247
			c2.794-9.053,6.642-17.776,9.85-26.708c1.555-4.33,5.934-10.114-4.127-9.878c-1.131,0.027-2.666-1.289-3.384-2.392
			c-2.629-4.035-3.887-1.769-5.118,0.931c-5.512,12.091-11.043,24.173-16.491,36.293
			C309.358,467.275,309.406,467.296,321.287,467.523z M175.279,121.081c5.362,0.301,10.084-1.325,14.835-2.736
			c12.32-3.658,14.149-7.893,8.494-19.479c-2.981-6.109-7.408-8.76-14.396-6.861c-8.688,2.361-15.22,11.631-15.725,22.101
			C168.224,119.583,169.596,122.416,175.279,121.081z M296.471,418.044c0-0.008,0-0.016,0-0.023c7.566,0,15.133-0.09,22.697,0.032
			c4.879,0.079,5.745-3.725,6.569-6.986c0.815-3.227-2.079-3.105-4.172-2.997c-14.571,0.75-29.016,3.742-43.77,1.678
			c-3.22-0.45-6.272,3.404-6.25,6.576c0.023,3.375,3.775,1.542,5.778,1.624C283.697,418.209,290.087,418.044,296.471,418.044z
			 M226.984,425.04c1.848-4.281,3.899-8.29,5.277-12.519c0.742-2.277,4.218-5.575,0.515-7.105c-2.766-1.142-4.541,2.551-5.585,5.288
			c-0.169,0.443-0.32,0.893-0.499,1.332c-3.453,8.472-4.536,8.826-11.979,3.038c-5.021-3.905-10.27-6.737-16.901-6.135
			c-5.322,0.483-8.66,4.347-7.919,9.5c0.402,2.793,1.167,4.636,4.499,2.325c6.22-4.314,12.962-3.544,19.805-1.652
			C218.76,420.375,222.694,422.941,226.984,425.04z M335.531,409.699c4.293-0.089,7.588-0.911,10.754,0.343
			c4.068,1.611,4.709-1.576,5.877-4.095c1.539-3.319-0.606-3.68-3.084-4.583c-2.511-0.915-4.656-2.834-7.127-4.419
			C339.897,401.026,337.91,404.974,335.531,409.699z M344.929,413.999c-0.724-0.236-1.69-0.866-2.595-0.787
			c-2.346,0.205-3.791,1.782-4.101,4.015c-0.27,1.944,1.188,2.283,2.697,1.813C343.046,418.381,344.488,416.99,344.929,413.999z
			 M353.798,394.305c-0.09-1.57-1.256-1.726-2.394-1.627c-1.566,0.136-3.34,0.203-3.846,2.148c-0.369,1.419,0.647,2.275,1.85,2.262
			C351.326,397.067,352.926,396.176,353.798,394.305z"/>
		<path class="st1" d="M261.51,305.038c-8.357,2.841-10.142,9.827-13.009,15.937c-7.353,15.672-25.665,24.136-42.257,19.816
			c-4.948-1.288-6.825-3.514-6.491-8.911c0.806-12.987,5.871-24.352,11.988-35.438c4.936-8.945,10.042-17.818,11.732-28.107
			c0.295-1.796,1.562-4.101-0.278-5.311c-1.968-1.295-4.204,0.228-5.904,1.376c-4.181,2.824-5.652,7.424-7.309,11.912
			c-5.838,15.812-14.268,30.081-26.614,41.658c-17.681,16.581-38.868,21.447-62.13,16.253
			c-20.253-4.522-32.339-18.516-38.076-37.705c-9.82-32.845-5.359-64.641,10.549-94.506c11.604-21.786,27.938-40.093,46.986-55.876
			c11.971-9.919,25.112-17.045,41.104-17.646c4.52-0.17,9.224-0.564,13.159-2.777c15.163-8.528,31.157-7.115,47.24-4.351
			c69.185,11.889,119.544,69.532,122.186,139.696c1.327,35.247-4.225,69.125-20.198,100.894c-4.188,8.329-9.731,15.688-16.267,22.39
			c-10.299,10.56-21.87,16.307-37.379,15.293c-21.158-1.384-28.005,3.905-34.762,23.9c-4.252,12.582-7.868,25.383-11.603,38.135
			c-1.663,5.68-3.927,6.603-9.486,3.568c-12.16-6.639-24.212-13.275-33.349-23.96c-3.12-3.648-7.913-7.901-3.744-12.988
			c4.042-4.933,10.138-4.526,15.784-2.113c5.117,2.186,8.902,6.283,13.15,9.689c4.107,3.293,6.738,4.466,8.462-2.415
			c2.416-9.645,5.446-19.236,10.484-27.908c2.202-3.791,0.453-4.747-2.544-6.049c-9.642-4.19-18.613-9.475-26.216-16.864
			c-8.059-7.832-13.064-17.298-15.902-28.154c-1.327-5.074-0.321-5.877,4.77-5.106c20.169,3.056,41.182-7.16,51.503-24.702
			C260.504,318.861,262.781,312.682,261.51,305.038z M305.98,320.151c-0.082,0-0.164,0-0.246,0c0-3.085-0.058-6.172,0.018-9.255
			c0.066-2.694-1.114-3.825-3.826-3.802c-2.462,0.021-3.973,0.695-4.497,3.396c-0.874,4.504-7.149,12.975-10.973,15.203
			c-2.939,1.713-5.283,4.029-7.016,6.933c-3.756,6.294-2.509,12.442,4.004,15.616c3.717,1.811,4.192,3.481,3.7,7.391
			c-1.555,12.367,4.418,17.303,15.794,13.098c3.211-1.187,4.626,0.137,6.855,1.485c8.713,5.269,18.711,1.745,21.805-7.764
			c0.676-2.077,1.48-2.897,3.466-3.715c9.762-4.023,12.839-11.525,11.388-22.397c-0.925-6.936-9.19-10.679-8.072-16.74
			c1.215-6.581,4.487-12.906,4.615-19.901c0.056-3.071,0.303-6.181-0.994-9.126c-1.009-2.292-2.306-4.173-5.156-4.167
			c-2.055,0.005-3.93,0.13-3.334,3.076c2.148,10.617-2.276,20.087-5.454,29.711c-1.19,3.602-1.191,5.817,2.254,8.321
			c4.706,3.422,7.863,8.284,8.003,14.441c0.077,3.363-1.534,6.225-4.617,7.399c-3.271,1.246-2.394-2.663-3.773-3.936
			c-1.841-1.698-3.826-3.393-6.203-2.482c-2.391,0.916-1.911,3.489-1.59,5.649c0.453,3.049,1.113,6.096,1.22,9.16
			c0.13,3.678-1.468,6.969-5.499,6.775c-3.487-0.168-5.141-3.083-4.811-6.691c0.173-1.886,0.673-3.757,0.696-5.639
			c0.032-2.633,1.459-6.1-2.439-7.139c-4.351-1.16-4.932,2.256-5.692,5.357c-0.845,3.447-1.553,7.022-4.184,9.674
			c-1.142,1.151-2.475,2.519-4.312,1.946c-2.068-0.645-1.577-2.691-1.702-4.226c-0.492-6.051,3.312-10.123,6.702-14.428
			c1.042-1.323,3.591-2.487,1.987-4.672c-1.427-1.943-3.755-1.774-5.858-0.917c-1.532,0.624-2.923,1.62-4.479,2.151
			c-2.662,0.908-6.029,4.053-7.858-0.276c-1.462-3.46,1.206-6.268,4.217-8.124c2.331-1.438,5.247-2,7.565-1.089
			c8.165,3.211,8.799-1.33,8.304-7.448C305.914,322.057,305.98,321.101,305.98,320.151z M175.102,194.804
			c4.112-0.174,9.134-1.444,13.666-4.292c7.328-4.605,10.547-12.555,8.571-20.226c-0.948-3.681-3.856-5.166-6.76-5.143
			c-3.194,0.025-1.287,3.353-1.766,5.168c-0.784,2.967-0.931,6.169-2.1,8.956c-4.598,10.959-15.338,12.232-22.493,2.83
			c-0.431-0.567-0.809-1.183-1.292-1.701c-1.481-1.589-3.327-3.497-5.434-2.52c-2.753,1.277-1.511,4.195-1.034,6.325
			C157.941,190.813,164.863,194.914,175.102,194.804z"/>
		<path class="st2" d="M434.687,466.227c-6.685,0.563-12.004,1.06-17.33,1.443c-4.127,0.297-7.648-1.3-9.842-4.68
			c-9.568-14.739-23.31-25.58-35.223-38.125c-2.126-2.239-4.385-4.351-6.545-6.558c-6.529-6.672-6.816-10.743-1.688-18.463
			c2.714-4.086,4.538-0.41,6.146,0.772c15.18,11.165,28.503,24.363,41.011,38.386C418.907,447.626,426.317,456.498,434.687,466.227z
			"/>
		<path class="st3" d="M402.204,266.838c4.721-0.386,7.915-0.157,5.243,5.997c-16.34,37.631-34.673,74.421-47.624,113.494
			c-2.073,6.255-7.222,0.561-10.83,0.735c-3.458,0.167-1.297-3.27-0.617-4.892c10.092-24.065,20.338-48.066,30.449-72.123
			c5.238-12.464,10.444-24.946,15.323-37.553C395.748,268.363,397.744,265.906,402.204,266.838z"/>
		<path class="st4" d="M321.287,467.523c-11.88-0.227-11.929-0.249-7.544-10.001c5.448-12.12,10.979-24.202,16.491-36.293
			c1.231-2.699,2.489-4.966,5.118-0.931c0.718,1.103,2.253,2.418,3.384,2.392c10.061-0.236,5.682,5.548,4.127,9.878
			c-3.208,8.932-7.055,17.655-9.85,26.708C330.889,466.156,327.35,469.343,321.287,467.523z"/>
		<path class="st5" d="M175.279,121.081c-5.683,1.334-7.055-1.499-6.792-6.974c0.505-10.47,7.037-19.741,15.725-22.101
			c6.988-1.899,11.415,0.752,14.396,6.861c5.655,11.586,3.826,15.821-8.494,19.479C185.363,119.756,180.641,121.382,175.279,121.081
			z"/>
		<path class="st6" d="M296.471,418.044c-6.384,0-12.774,0.165-19.147-0.097c-2.003-0.082-5.755,1.751-5.778-1.624
			c-0.022-3.172,3.031-7.027,6.25-6.576c14.753,2.064,29.198-0.928,43.77-1.678c2.093-0.108,4.987-0.23,4.172,2.997
			c-0.823,3.261-1.69,7.065-6.569,6.986c-7.564-0.122-15.131-0.032-22.697-0.032C296.471,418.028,296.471,418.036,296.471,418.044z"
			/>
		<path class="st7" d="M226.984,425.04c-4.289-2.099-8.224-4.665-12.787-5.927c-6.844-1.893-13.585-2.662-19.805,1.652
			c-3.332,2.311-4.097,0.468-4.499-2.325c-0.741-5.153,2.597-9.017,7.919-9.5c6.631-0.602,11.88,2.23,16.901,6.135
			c7.443,5.788,8.526,5.434,11.979-3.038c0.179-0.439,0.33-0.889,0.499-1.332c1.044-2.737,2.819-6.431,5.585-5.288
			c3.703,1.529,0.227,4.828-0.515,7.105C230.883,416.75,228.832,420.759,226.984,425.04z"/>
		<path class="st8" d="M335.531,409.699c2.379-4.725,4.366-8.673,6.42-12.754c2.47,1.585,4.616,3.504,7.127,4.419
			c2.478,0.903,4.623,1.265,3.084,4.583c-1.168,2.519-1.809,5.706-5.877,4.095C343.119,408.789,339.824,409.61,335.531,409.699z"/>
		<path class="st9" d="M333.036,395.213c-0.571-0.596-1.142-1.192-1.713-1.788c1.191-1.4,2.382-2.8,3.932-4.621
			C336.3,392.059,334.523,393.582,333.036,395.213z"/>
		<path class="st10" d="M305.98,320.151c0,0.95-0.066,1.905,0.011,2.849c0.494,6.118-0.139,10.659-8.304,7.448
			c-2.317-0.911-5.234-0.349-7.565,1.089c-3.01,1.856-5.679,4.664-4.217,8.124c1.83,4.329,5.197,1.184,7.858,0.276
			c1.556-0.531,2.947-1.527,4.479-2.151c2.103-0.857,4.431-1.026,5.858,0.917c1.605,2.186-0.945,3.349-1.987,4.672
			c-3.39,4.305-7.194,8.377-6.702,14.428c0.125,1.534-0.366,3.581,1.702,4.226c1.838,0.573,3.171-0.795,4.312-1.946
			c2.631-2.652,3.339-6.227,4.184-9.674c0.76-3.101,1.341-6.517,5.692-5.357c3.898,1.04,2.471,4.506,2.439,7.139
			c-0.023,1.882-0.523,3.753-0.696,5.639c-0.33,3.608,1.324,6.523,4.811,6.691c4.031,0.194,5.628-3.096,5.499-6.775
			c-0.108-3.064-0.768-6.111-1.22-9.16c-0.321-2.16-0.801-4.733,1.59-5.649c2.377-0.911,4.362,0.783,6.203,2.482
			c1.379,1.272,0.503,5.182,3.773,3.936c3.084-1.175,4.694-4.036,4.617-7.399c-0.141-6.157-3.297-11.019-8.003-14.441
			c-3.444-2.504-3.443-4.719-2.254-8.321c3.178-9.623,7.603-19.094,5.454-29.711c-0.596-2.946,1.279-3.072,3.334-3.076
			c2.849-0.007,4.146,1.874,5.156,4.167c1.296,2.944,1.05,6.055,0.994,9.126c-0.128,6.995-3.401,13.32-4.615,19.901
			c-1.119,6.061,7.146,9.803,8.072,16.74c1.451,10.873-1.626,18.375-11.388,22.397c-1.986,0.818-2.79,1.638-3.466,3.715
			c-3.094,9.509-13.092,13.033-21.805,7.764c-2.229-1.348-3.644-2.672-6.855-1.485c-11.376,4.205-17.349-0.731-15.794-13.098
			c0.492-3.91,0.017-5.579-3.7-7.391c-6.513-3.174-7.76-9.322-4.004-15.616c1.733-2.904,4.076-5.22,7.016-6.933
			c3.823-2.228,10.098-10.699,10.973-15.203c0.524-2.701,2.036-3.375,4.497-3.396c2.711-0.023,3.892,1.108,3.826,3.802
			c-0.076,3.083-0.018,6.17-0.018,9.255C305.816,320.151,305.898,320.151,305.98,320.151z"/>
		<path class="st11" d="M175.102,194.804c-10.24,0.11-17.162-3.991-18.641-10.603c-0.477-2.13-1.719-5.048,1.034-6.325
			c2.107-0.978,3.953,0.931,5.434,2.52c0.483,0.518,0.86,1.134,1.292,1.701c7.155,9.402,17.895,8.129,22.493-2.83
			c1.169-2.787,1.316-5.989,2.1-8.956c0.48-1.816-1.428-5.143,1.766-5.168c2.904-0.023,5.812,1.463,6.76,5.143
			c1.976,7.671-1.243,15.621-8.571,20.226C184.236,193.36,179.214,194.63,175.102,194.804z"/>
	</g>
</g>
</svg>
